<svg id="Layer_1" data-name="Layer 1" xmlns="http://www.w3.org/2000/svg" viewBox="0 0 339.12 181.79"><defs><style>.cls-1{fill:#fff;}</style></defs><path d="M625.67,600.52H624c-1.79-.16-3.58-.31-5.36-.48a73.45,73.45,0,0,1-17.25-3.34c-6-2.1-10.47-5.81-12.53-12-1.48-4.42-3-8.85-2.34-14-4.4,0-8.71,0-13,0q-22.74-.15-45.47-.33c-10.56-.09-21.11-.15-31.66-.36-8-.15-15.91-.79-23.86-.7-12.95.13-25.9.73-38.86,1-4.3.09-8.62-.2-12.93-.32V562.6c.05-.56.14-1.11.15-1.66q.43-28.08.85-56.15c.06-3.91,0-7.82,0-11.9,2.9-.13,5.53-.31,8.16-.34,15.08-.19,30.15-.44,45.23-.46,7.11,0,14.23.33,21.33.7a10.5,10.5,0,0,1,8.43,4.42,37.7,37.7,0,0,1,2.5,5.38c.18.39.47.93.8,1,2.72.57,5.48,1,8.2,1.59a4.45,4.45,0,0,1,2.57,1.26,5.64,5.64,0,0,0,5.52,2.37c4.27-.29,8.54-.6,12.81-.81a82.36,82.36,0,0,1,16.76.56c5.3.81,10.58,1.76,16,1.48,12.78-.66,25.55-1.42,38.33-2a115.1,115.1,0,0,1,13.65,0c6.47.48,12.75,2.14,19,3.83a3.32,3.32,0,0,0,1.92-.11c5.79-2.16,11.67-4,17.87-4.35a355.38,355.38,0,0,1,39.57.61,220.7,220.7,0,0,0,28.87-.31c5-.35,9.95-1.15,14.94-1.24,5.21-.09,10.44.41,15.67.66V511c-.07.63-.17,1.26-.19,1.89-.15,4.79-.31,9.59-.41,14.39-.22,10.55-.4,21.11-.63,31.66a4.49,4.49,0,0,1-.49,1.94,36.4,36.4,0,0,1-7.32,9.42,3.24,3.24,0,0,1-1.81.7c-3.11.23-6.23.36-9.34.54l-40.48,2.31c-11.33.64-22.67,1.27-34,1.95a2,2,0,0,0-1.27.79c-2.3,3-4.34,6.15-6.86,8.91-6.64,7.26-14.68,12.29-24.47,14.15C630.29,600.08,628,600.24,625.67,600.52Zm-5.71-5v.1c1.09-.12,2.2-.17,3.29-.37.72-.12,1.38-.59,2.1-.67,3.7-.39,7.35-.83,10.63-2.86,1.3-.81,3-1,4.25-1.85,2.44-1.57,4.74-3.35,7.06-5.08a10.06,10.06,0,0,0,2-1.82c1.28-1.67,2.68-3.25,3.23-5.38s1.68-4.13,1.2-6.45-.75-4.66-2.4-6.51c-.74-.83-1.69-1.49-2.37-2.36a13.06,13.06,0,0,0-5.46-4c-1.46-.62-3.06-.9-4.55-1.46-1.16-.43-2.19-1.2-3.37-1.57-1.81-.57-3.71-.86-5.55-1.38-3.36-1-6.69-2-10-3-1.21-.34-2.25-1.1-2.13-2.17a5.28,5.28,0,0,1,1.7-3.27c2-1.64,4.72-1.81,7.22-2,2.91-.21,5.81-.33,8.52-1.51,1-.41,1.75-1.21,2.72-1.58,3.34-1.28,6-3.19,7.39-6.69,1.24-3.15,2.52-6.2,1.17-9.7-.59-1.53.38-2.71,2-3.15a12.61,12.61,0,0,0,3.05-1.35c1.5-.9,2.77-.57,3,1a51.74,51.74,0,0,1,.76,6.68c.12,3.84,0,7.69,0,11.54a3.36,3.36,0,0,0,0,.84c.62,2,.13,4-.32,6a6.14,6.14,0,0,0,.13,4.1,4.59,4.59,0,0,1,.14,2.6,4.22,4.22,0,0,0,.75,3.64,10.3,10.3,0,0,1,.58,1.15c1.5,2.51,3,5,6.24,5.61a59.81,59.81,0,0,0,6.52,1.33,38.57,38.57,0,0,0,6.14-.42,1,1,0,0,0,.35-.06c2.15-1,4.34-1.92,6.42-3s2.83-1,4,1a2.23,2.23,0,0,0,1.89,1.36,33.07,33.07,0,0,0,5.27-.05,11.9,11.9,0,0,1,6,.54,3.51,3.51,0,0,0,3.24-.76c.66-.94.24-1.85-.1-2.8a24.83,24.83,0,0,1-1.65-5.19c-.44-3.49-.58-7-.76-10.53-.06-1.17.2-2.36.2-3.55s-.21-2.61-.2-3.91c0-2,.19-4,.21-6,0-3.32,0-6.64,0-10a5.45,5.45,0,0,1,.06-1.07,10.63,10.63,0,0,0-.28-5.37c-.5-1.56-1-2.06-2.6-1.94-2,.15-3.88.55-5.82.8-2.2.28-4.27,1.24-6.63.66-2-.48-3.53.86-2.28,3.2a7.94,7.94,0,0,1,1.25,5.05,1.82,1.82,0,0,0,.31,1,6.4,6.4,0,0,1,.41,4.59,7.31,7.31,0,0,0-.24,2.23c.1,1.85.35,3.69.44,5.53a37,37,0,0,1,0,4.47c-.22,3.31.44,6.64-.6,10a4.32,4.32,0,0,1-1.79,2.69,14.83,14.83,0,0,1-2.11,1.28,11.41,11.41,0,0,1-3.63,1.17,6.06,6.06,0,0,1-4.5-2c-1.44-1.48-1.16-3.59-1.45-5.45a38.42,38.42,0,0,1-.16-4.43c0-1.4-.12-2.79-.15-4.19,0-1.61,0-3.21,0-4.82,0-.89-.06-1.78,0-2.67,0-1.22.22-2.44.27-3.66.07-1.6.06-3.2.1-4.8s.1-3,.14-4.42c0-.69,0-1.38,0-2.06,0-1.44.12-3-1.15-3.89-1-.66-2.23-.34-3.38.18a11.41,11.41,0,0,1-2.51.52c-1.1.21-2.21.43-3.32.63a7.89,7.89,0,0,1-2.08.28c-1.92-.16-3.82-.44-5.73-.67a3.94,3.94,0,0,0-.84,0c-1.21.14-2.41.36-3.62.42-1.48.07-3,0-4.46,0-.61,0-1.22.09-1.82,0-1.28-.13-2.57-.28-3.84-.53a11.81,11.81,0,0,1-3-.89,11.53,11.53,0,0,0-5.11-1.51c-1.23,0-2.46-.1-3.68-.19-2-.15-4-.64-5.89-.44a38.07,38.07,0,0,0-8.12,1.69,18.92,18.92,0,0,0-7.8,5,12.65,12.65,0,0,0-3.35,6.6c-.46,2.76-.13,5.66-.08,8.5a2.49,2.49,0,0,0,.53,1.38c.73,1,1.62,1.78,2.31,2.76,1.64,2.3,3.55,4.08,6.57,4.29a2.57,2.57,0,0,1,2.32,2.42c0,.79-1,1.67-1.88,1.89a29.85,29.85,0,0,0-5.88,1.78,36.43,36.43,0,0,0-5.41,3.84,4.16,4.16,0,0,0-1.44,3.48c0,2.51,1.63,4.23,3.41,5.76.48.41,1.31.43,1.78.85a5,5,0,0,0,4.14,1.31,1.6,1.6,0,0,1,1.66.91c.92,1.47.28,3-1.37,3.69a27.3,27.3,0,0,0-4.43,2.37c-1.31.89-2.34,2.21-3.67,3.07a10.92,10.92,0,0,0-4.75,5.32c-.51,1.39-1.34,2.71-.91,4.35a23.83,23.83,0,0,1,.29,2.82,3.34,3.34,0,0,0,.44,1.31c1,1.52,2.07,3,3,4.52a5.6,5.6,0,0,0,3.12,2.37,20.46,20.46,0,0,1,2.53.88c3.38,1.64,7,1.88,10.68,2C616.34,595.52,618.15,595.48,620,595.48ZM438.62,524.07a8.5,8.5,0,0,1,.5-2,1.56,1.56,0,0,1,2.64-.33,9.12,9.12,0,0,1,1,2.07c1.2,2.75,2.37,5.51,3.56,8.25.47,1.07,1,2.12,1.48,3.18,1.14,2.39,2.29,4.78,3.41,7.18.59,1.27,1.11,2.57,1.7,3.84,1,2.17,2,4.32,3.05,6.47l3.16,6.67c.4.84.77,1.7,1.17,2.54s.77,1.85,2,1.89,1.65-.72,2.08-1.58c.27-.56.48-1.14.73-1.71,1.27-2.86,2.54-5.71,3.79-8.58a3.09,3.09,0,0,0,.24-.89c.31-3.14,1.76-5.88,2.95-8.72.28-.67.85-1.21,1.15-1.88,1.38-3.09,2.8-6.16,4-9.31.8-2,1.22-4.19,2-6.22A4.42,4.42,0,0,1,481,523a2.19,2.19,0,0,1,1.75.14c.31.14.7.9.57,1.15-1.21,2.45-.55,5-.64,7.55a4.27,4.27,0,0,0,.08,1.43c.95,3.18-.1,6.38.09,9.57,0,0,0,.07-.05.11a12.84,12.84,0,0,0,.05,6.19,7.64,7.64,0,0,1,.17,5c-.85,2.62-1.43,5.34-2.13,8-.39,1.48.17,2.28,1.68,2.18s3-.42,4.43-.58a55.64,55.64,0,0,1,5.88-.55,45.11,45.11,0,0,1,5.55.44,11.08,11.08,0,0,1,2.27.49,2.09,2.09,0,0,0,2.38-.35,1.93,1.93,0,0,0,.52-2.55,12,12,0,0,1-1.64-4.82c-.36-2.51-1-5-1.25-7.51-.35-3.86-.13-7.74-.48-11.62-.28-3.09-.2-6.22-.28-9.33-.11-3.85-1-7.68-.48-11.56a.65.65,0,0,0,0-.24,32.37,32.37,0,0,1-.2-11c.28-2.12.36-4.28,1.36-6.29a7.4,7.4,0,0,0,.51-3,1.48,1.48,0,0,0-2.09-1.5,6.33,6.33,0,0,1-1.44.46c-1.39.07-2.74,1.05-4.11.36a4.74,4.74,0,0,0-3.87,0,5.83,5.83,0,0,1-2.21.2c-1.21-.07-2.41-.35-3.62-.4a4.33,4.33,0,0,0-4.13,2.9c-.17.52,0,1.14-.24,1.63-1.21,2.85-2.48,5.66-3.71,8.5-.22.53-.3,1.11-.47,1.67-.37,1.18-.7,2.38-1.13,3.54-.25.68-.71,1.28-1,2-.8,1.76-1.65,3.51-2.35,5.31-1,2.63-1.93,5.32-3,7.95a5.91,5.91,0,0,1-1.55,2.69c-1.2.84-2.89-.18-3.44-1.84-.3-.93-.38-1.93-.74-2.82-1.29-3.25-2.65-6.47-4-9.7a6.65,6.65,0,0,0-.41-.85c-.8-1.38-1.74-2.69-2.4-4.14-1.66-3.66-4.14-7-5-11,0-.18-.21-.32-.29-.5-.7-1.52-1.37-3.05-2.12-4.54a1.94,1.94,0,0,0-1.07-1,7.43,7.43,0,0,0-2.16-.05c-2.45.15-4.89.34-7.34.47-1.2.06-2.42-.1-3.61,0a12.84,12.84,0,0,1-5.7-.87c-1-.33-2.08.1-2.14,1a5.65,5.65,0,0,0,.26,2.08c.65,2,1.73,3.83,2,5.83a97.53,97.53,0,0,1,.77,10.4c.08,2-.17,4-.2,6.07,0,2.37,0,4.74,0,7.11,0,.31.08.62.09.94,0,.85,0,1.71-.05,2.56a19.3,19.3,0,0,0-.24,2.1c.08,1.33.38,2.65.42,4,.07,2.48,0,5,0,7.44a7,7,0,0,1-.13,1.29c-.34,1.65-1,3.29-1,4.92a28.5,28.5,0,0,1-1.61,8.42c-.41,1.41-1,2.77-1.46,4.19a1.18,1.18,0,0,0,1.06,1.61,8.92,8.92,0,0,0,2.24-.14,50.75,50.75,0,0,1,6.86-1,35.34,35.34,0,0,1,7,1c2.31.47,3.1-.5,2.88-2.64-.05-.54-.52-1-.77-1.56-1-2.06-2.47-4-2.9-6.22a99.46,99.46,0,0,1-1.3-11.84c-.13-1.73.21-3.49.17-5.23s-.28-3.69-.44-5.54-.32-3.85-.51-5.78A9.89,9.89,0,0,0,438.62,524.07Zm121.44,11.1a39.25,39.25,0,0,0,0-4.22A22.17,22.17,0,0,0,557,522.8a17.23,17.23,0,0,0-4.73-6c-2.68-2-5.45-3.9-8.67-4.7s-6.32-1.66-9.68-1.42c-2.78.2-5.54,0-8.32.86-1.62.49-3.25.74-4.9,1.41a45.71,45.71,0,0,0-6.3,3.51,16.05,16.05,0,0,0-6.42,7.56,53.08,53.08,0,0,0-2.26,7.36,27.51,27.51,0,0,0-.92,5.16c-.12,1.78.21,3.58.16,5.36A19.29,19.29,0,0,0,509,554.37c2.19,2.87,4.39,5.83,8.16,7.26,3,1.13,6,2.2,9,3a12,12,0,0,0,3.59.3c1.89-.07,3.81-.57,5.66-.39,2.78.28,5.14-1,7.64-1.64a14.43,14.43,0,0,0,5.65-2.66c1.51-1.24,3.38-2,4.62-3.68.93-1.23,2.2-2.24,2.91-3.57a42.09,42.09,0,0,0,3-7,27.27,27.27,0,0,0,1.07-6.23A30.93,30.93,0,0,0,560.06,535.17Zm145.46,4.28c.26,2.31.43,4.84.86,7.32a6.9,6.9,0,0,0,1.42,3.41c1.8,2,2.61,4.64,4.87,6.31,1.27.94,1.92,2.66,3.68,3.1.36.09.62.48,1,.67a16.61,16.61,0,0,0,3.36,1.81c1.9.55,4,.54,5.83,1.21,3,1.11,6.18.66,9.26.91,1.54.13,3.15-.51,4.71-.89s3.14-.2,4.46-1.27a5.76,5.76,0,0,1,1.47-.65c2.2-.87,4.18-2,4.82-4.53.27-1.1.83-2.12,1-3.22.13-.63.07-1.65-.32-2s-1.38-.17-2.07,0a4.71,4.71,0,0,0-1.32.74c-2.9,1.64-5.87,2.92-9.34,2.32-1.17-.21-2.39-.09-3.56-.29a19.18,19.18,0,0,1-2.77-.93,13.12,13.12,0,0,1-6.44-4.94,58.28,58.28,0,0,1-3.46-5.45,6.21,6.21,0,0,1-.58-2.36,19.24,19.24,0,0,0-.07-2.75,5.62,5.62,0,0,1,.42-3.53,2.2,2.2,0,0,1,2.42-1.62q3.51.15,7,.24c1.12,0,2.25,0,3.38,0s2-.09,3-.18c.46,0,.91-.28,1.37-.28a51.21,51.21,0,0,1,7,.07c1.55.19,3.28-.32,4.69.84.14.11.54,0,.78-.11,1.82-.69,2.42-1.49,2.36-3.47,0-1.08-.47-2.17-.43-3.25a12.5,12.5,0,0,0-2.87-8.38c-.73-.92-1.39-1.9-2.15-2.8a7.23,7.23,0,0,0-1.68-1.59,38.52,38.52,0,0,0-4.46-2.43,30.54,30.54,0,0,0-4.2-1.43,16.58,16.58,0,0,0-3.54-.71,47,47,0,0,0-6.61,0,43.89,43.89,0,0,0-5.6,1.17,18.51,18.51,0,0,0-7.11,3.17,42.86,42.86,0,0,0-4.88,4.75,20.34,20.34,0,0,0-4.37,8.46c-.81,2.69-1.66,5.47-1.1,8.44A16.91,16.91,0,0,1,705.52,539.45Zm-128.5-28v-.09c-1.28.18-2.57.33-3.85.55-2.69.47-5.38,1.32-8.08,1.37-3.29.05-3.6,1.29-2.23,3.83.11.21.21.43.34.63,1.65,2.59,1.88,5.51,2,8.47a36.88,36.88,0,0,1,0,7.86,4.8,4.8,0,0,0,.07,1.06c.06,1.19.12,2.39.16,3.58,0,.52,0,1,0,1.56,0,1.57,0,3.14,0,4.71s-.2,3.41-.24,5.11c0,.9.23,1.81.16,2.7-.15,1.72-.43,3.43-.67,5.14,0,.3,0,.71-.23.87a3.71,3.71,0,0,0-1.17,3.39c0,.37.35,1,.61,1a17.32,17.32,0,0,0,3.29.26c1.09,0,2.17-.27,3.26-.41a20.8,20.8,0,0,1,2.23-.23c.95,0,1.9.06,2.86.13s1.85.21,2.79.24c.59,0,1.19-.15,1.79-.13.82,0,1.64.21,2.47.21,1.37,0,2-.79,1.66-2.14s-.83-2.59-1-3.92a39.58,39.58,0,0,1-.6-5.79c0-4.09-1.13-8.14-.89-12.28,0-.81-.23-1.65-.19-2.47.1-2.2.31-4.4.44-6.6a8.41,8.41,0,0,1,0-1.94,25.11,25.11,0,0,1,1.76-4.29,4.19,4.19,0,0,1,5.78-1.64c1.09.55,2.11,1.23,3.23,1.68s2.32.91,3.47.09a12.43,12.43,0,0,0,4.24-4.49,4.12,4.12,0,0,0,.35-3.43,7.57,7.57,0,0,0-4.55-4.46,8,8,0,0,0-5.41-.23,17.18,17.18,0,0,0-7.42,4.46,2.62,2.62,0,0,1-2.14.6c-1-.24-1.06-1.28-1-2.18.2-1.8-.44-2.63-2.22-2.79C577.74,511.45,577.38,511.48,577,511.48Z" transform="translate(-420.71 -418.72)"/><path class="cls-1" d="M620,595.48c-1.81,0-3.62,0-5.42,0-3.66-.11-7.3-.35-10.68-2a20.46,20.46,0,0,0-2.53-.88,5.6,5.6,0,0,1-3.12-2.37c-1-1.53-2.05-3-3-4.52a3.34,3.34,0,0,1-.44-1.31,23.83,23.83,0,0,0-.29-2.82c-.43-1.64.4-3,.91-4.35a10.92,10.92,0,0,1,4.75-5.32c1.33-.86,2.36-2.18,3.67-3.07a27.3,27.3,0,0,1,4.43-2.37c1.65-.73,2.29-2.22,1.37-3.69a1.6,1.6,0,0,0-1.66-.91,5,5,0,0,1-4.14-1.31c-.47-.42-1.3-.44-1.78-.85-1.78-1.53-3.37-3.25-3.41-5.76a4.16,4.16,0,0,1,1.44-3.48,36.43,36.43,0,0,1,5.41-3.84,29.85,29.85,0,0,1,5.88-1.78c.86-.22,1.85-1.1,1.88-1.89a2.57,2.57,0,0,0-2.32-2.42c-3-.21-4.93-2-6.57-4.29-.69-1-1.58-1.81-2.31-2.76a2.49,2.49,0,0,1-.53-1.38c-.05-2.84-.38-5.74.08-8.5a12.65,12.65,0,0,1,3.35-6.6,18.92,18.92,0,0,1,7.8-5,38.07,38.07,0,0,1,8.12-1.69c1.93-.2,3.92.29,5.89.44,1.22.09,2.45.19,3.68.19a11.53,11.53,0,0,1,5.11,1.51,11.81,11.81,0,0,0,3,.89c1.27.25,2.56.4,3.84.53.6.06,1.21,0,1.82,0,1.49,0,3,0,4.46,0,1.21-.06,2.41-.28,3.62-.42a3.94,3.94,0,0,1,.84,0c1.91.23,3.81.51,5.73.67a7.89,7.89,0,0,0,2.08-.28c1.11-.2,2.22-.42,3.32-.63a11.41,11.41,0,0,0,2.51-.52c1.15-.52,2.42-.84,3.38-.18,1.27.86,1.2,2.45,1.15,3.89,0,.68,0,1.37,0,2.06,0,1.47-.1,3-.14,4.42s0,3.2-.1,4.8c0,1.22-.22,2.44-.27,3.66,0,.89,0,1.78,0,2.67,0,1.61,0,3.21,0,4.82,0,1.4.11,2.79.15,4.19a38.42,38.42,0,0,0,.16,4.43c.29,1.86,0,4,1.45,5.45a6.06,6.06,0,0,0,4.5,2,11.41,11.41,0,0,0,3.63-1.17,14.83,14.83,0,0,0,2.11-1.28,4.32,4.32,0,0,0,1.79-2.69c1-3.32.38-6.65.6-10a37,37,0,0,0,0-4.47c-.09-1.84-.34-3.68-.44-5.53a7.31,7.31,0,0,1,.24-2.23,6.4,6.4,0,0,0-.41-4.59,1.82,1.82,0,0,1-.31-1,7.94,7.94,0,0,0-1.25-5.05c-1.25-2.34.29-3.68,2.28-3.2,2.36.58,4.43-.38,6.63-.66,1.94-.25,3.87-.65,5.82-.8,1.58-.12,2.1.38,2.6,1.94a10.63,10.63,0,0,1,.28,5.37,5.45,5.45,0,0,0-.06,1.07c0,3.32,0,6.64,0,10,0,2-.2,4-.21,6,0,1.3.2,2.61.2,3.91s-.26,2.38-.2,3.55c.18,3.52.32,7,.76,10.53a24.83,24.83,0,0,0,1.65,5.19c.34,1,.76,1.86.1,2.8a3.51,3.51,0,0,1-3.24.76,11.9,11.9,0,0,0-6-.54,33.07,33.07,0,0,1-5.27.05,2.23,2.23,0,0,1-1.89-1.36c-1.18-2-2-2.14-4-1s-4.27,2-6.42,3a1,1,0,0,1-.35.06,38.57,38.57,0,0,1-6.14.42,59.81,59.81,0,0,1-6.52-1.33c-3.21-.63-4.74-3.1-6.24-5.61a10.3,10.3,0,0,0-.58-1.15,4.22,4.22,0,0,1-.75-3.64,4.59,4.59,0,0,0-.14-2.6,6.14,6.14,0,0,1-.13-4.1c.45-1.93.94-3.93.32-6a3.36,3.36,0,0,1,0-.84c0-3.85.09-7.7,0-11.54a51.74,51.74,0,0,0-.76-6.68c-.26-1.62-1.53-1.95-3-1a12.61,12.61,0,0,1-3.05,1.35c-1.59.44-2.56,1.62-2,3.15,1.35,3.5.07,6.55-1.17,9.7-1.37,3.5-4,5.41-7.39,6.69-1,.37-1.76,1.17-2.72,1.58-2.71,1.18-5.61,1.3-8.52,1.51-2.5.18-5.18.35-7.22,2a5.28,5.28,0,0,0-1.7,3.27c-.12,1.07.92,1.83,2.13,2.17,3.36,1,6.69,2,10,3,1.84.52,3.74.81,5.55,1.38,1.18.37,2.21,1.14,3.37,1.57,1.49.56,3.09.84,4.55,1.46a13.06,13.06,0,0,1,5.46,4c.68.87,1.63,1.53,2.37,2.36,1.65,1.85,1.92,4.22,2.4,6.51s-.66,4.33-1.2,6.45-1.95,3.71-3.23,5.38a10.06,10.06,0,0,1-2,1.82c-2.32,1.73-4.62,3.51-7.06,5.08-1.28.82-3,1-4.25,1.85-3.28,2-6.93,2.47-10.63,2.86-.72.08-1.38.55-2.1.67-1.09.2-2.2.25-3.29.37Zm3.73-7.72a10.93,10.93,0,0,0,6.55-1.58c1.69-.88,3.61-1.76,4.74-3.18,1.68-2.1,3.17-4.39,2.78-7.55s-1.63-4.82-4.4-5.87c-2.21-.83-4.55-1.32-6.83-2-1.56-.46-3.14-.92-4.66-1.5a4.89,4.89,0,0,0-6,1.67c-.43.51-.87,1-1.3,1.54-1.93,2.38-4,4.66-3.78,8.1.16,2.79.63,5.17,3.15,7.05C616.89,586.66,620,588,623.69,587.76Zm.18-51.08a6.21,6.21,0,0,0,5.42-4c1.17-3.29.87-6.64.39-10a6.77,6.77,0,0,0-1.29-3.46,13.46,13.46,0,0,0-3.6-2.31,1.88,1.88,0,0,0-2.35.51c-.57.53-1.27.93-1.83,1.48a5.16,5.16,0,0,0-1.37,1.75,8.71,8.71,0,0,0-.58,4.58c.53,2.86.37,5.83,1.46,8.64A3.77,3.77,0,0,0,623.87,536.68Z" transform="translate(-420.71 -418.72)"/><path class="cls-1" d="M438.62,524.07a9.89,9.89,0,0,1,.3,1.29c.19,1.93.35,3.85.51,5.78s.39,3.69.44,5.54-.3,3.5-.17,5.23a99.46,99.46,0,0,0,1.3,11.84c.43,2.18,1.89,4.16,2.9,6.22.25.53.72,1,.77,1.56.22,2.14-.57,3.11-2.88,2.64a35.34,35.34,0,0,0-7-1,50.75,50.75,0,0,0-6.86,1,8.92,8.92,0,0,1-2.24.14,1.18,1.18,0,0,1-1.06-1.61c.43-1.42,1.05-2.78,1.46-4.19a28.5,28.5,0,0,0,1.61-8.42c0-1.63.65-3.27,1-4.92a7,7,0,0,0,.13-1.29c0-2.48.06-5,0-7.44,0-1.33-.34-2.65-.42-4a19.3,19.3,0,0,1,.24-2.1c.06-.85.05-1.71.05-2.56,0-.32-.09-.63-.09-.94,0-2.37,0-4.74,0-7.11,0-2,.28-4.05.2-6.07a97.53,97.53,0,0,0-.77-10.4c-.3-2-1.38-3.87-2-5.83a5.65,5.65,0,0,1-.26-2.08c.06-.9,1.14-1.33,2.14-1a12.84,12.84,0,0,0,5.7.87c1.19-.13,2.41,0,3.61,0,2.45-.13,4.89-.32,7.34-.47a7.43,7.43,0,0,1,2.16.05,1.94,1.94,0,0,1,1.07,1c.75,1.49,1.42,3,2.12,4.54.08.18.26.32.29.5.84,4,3.32,7.33,5,11,.66,1.45,1.6,2.76,2.4,4.14a6.65,6.65,0,0,1,.41.85c1.34,3.23,2.7,6.45,4,9.7.36.89.44,1.89.74,2.82.55,1.66,2.24,2.68,3.44,1.84a5.91,5.91,0,0,0,1.55-2.69c1-2.63,1.93-5.32,3-7.95.7-1.8,1.55-3.55,2.35-5.31.31-.67.77-1.27,1-2,.43-1.16.76-2.36,1.13-3.54.17-.56.25-1.14.47-1.67,1.23-2.84,2.5-5.65,3.71-8.5.21-.49.07-1.11.24-1.63a4.33,4.33,0,0,1,4.13-2.9c1.21.05,2.41.33,3.62.4a5.83,5.83,0,0,0,2.21-.2,4.74,4.74,0,0,1,3.87,0c1.37.69,2.72-.29,4.11-.36a6.33,6.33,0,0,0,1.44-.46,1.48,1.48,0,0,1,2.09,1.5,7.4,7.4,0,0,1-.51,3c-1,2-1.08,4.17-1.36,6.29a32.37,32.37,0,0,0,.2,11,.65.65,0,0,1,0,.24c-.54,3.88.37,7.71.48,11.56.08,3.11,0,6.24.28,9.33.35,3.88.13,7.76.48,11.62.23,2.52.89,5,1.25,7.51a12,12,0,0,0,1.64,4.82,1.93,1.93,0,0,1-.52,2.55,2.09,2.09,0,0,1-2.38.35,11.08,11.08,0,0,0-2.27-.49,45.11,45.11,0,0,0-5.55-.44,55.64,55.64,0,0,0-5.88.55c-1.48.16-2.95.47-4.43.58s-2.07-.7-1.68-2.18c.7-2.68,1.28-5.4,2.13-8a7.64,7.64,0,0,0-.17-5,12.84,12.84,0,0,1-.05-6.19s.05-.07.05-.11c-.19-3.19.86-6.39-.09-9.57a4.27,4.27,0,0,1-.08-1.43c.09-2.52-.57-5.1.64-7.55.13-.25-.26-1-.57-1.15A2.19,2.19,0,0,0,481,523a4.42,4.42,0,0,0-1.66,1.95c-.76,2-1.18,4.2-2,6.22-1.24,3.15-2.66,6.22-4,9.31-.3.67-.87,1.21-1.15,1.88-1.19,2.84-2.64,5.58-2.95,8.72a3.09,3.09,0,0,1-.24.89c-1.25,2.87-2.52,5.72-3.79,8.58-.25.57-.46,1.15-.73,1.71-.43.86-.94,1.62-2.08,1.58s-1.59-1-2-1.89-.77-1.7-1.17-2.54L456,552.7c-1-2.15-2.05-4.3-3.05-6.47-.59-1.27-1.11-2.57-1.7-3.84-1.12-2.4-2.27-4.79-3.41-7.18-.5-1.06-1-2.11-1.48-3.18-1.19-2.74-2.36-5.5-3.56-8.25a9.12,9.12,0,0,0-1-2.07,1.56,1.56,0,0,0-2.64.33A8.5,8.5,0,0,0,438.62,524.07Z" transform="translate(-420.71 -418.72)"/><path class="cls-1" d="M560.06,535.17a30.93,30.93,0,0,1,.28,4.59,27.27,27.27,0,0,1-1.07,6.23,42.09,42.09,0,0,1-3,7c-.71,1.33-2,2.34-2.91,3.57-1.24,1.64-3.11,2.44-4.62,3.68a14.43,14.43,0,0,1-5.65,2.66c-2.5.69-4.86,1.92-7.64,1.64-1.85-.18-3.77.32-5.66.39a12,12,0,0,1-3.59-.3c-3.06-.84-6-1.91-9-3-3.77-1.43-6-4.39-8.16-7.26a19.29,19.29,0,0,1-4.06-12.43c.05-1.78-.28-3.58-.16-5.36a27.51,27.51,0,0,1,.92-5.16,53.08,53.08,0,0,1,2.26-7.36,16.05,16.05,0,0,1,6.42-7.56,45.71,45.71,0,0,1,6.3-3.51c1.65-.67,3.28-.92,4.9-1.41,2.78-.84,5.54-.66,8.32-.86,3.36-.24,6.53.64,9.68,1.42s6,2.71,8.67,4.7a17.23,17.23,0,0,1,4.73,6A22.17,22.17,0,0,1,560,531,39.25,39.25,0,0,1,560.06,535.17ZM543,537.66c-.21-2.21-.36-4.09-.59-6-.19-1.63-.46-3.24-.72-4.86a4.3,4.3,0,0,0-.31-1.13c-.6-1.31-1.21-2.61-1.85-3.89a8.22,8.22,0,0,0-.87-1.25c-1-1.32-2.6-1.6-4.06-2.18-2.4-1-4.38,0-6.36,1-2.62,1.23-3.27,4-4.25,6.34a33.17,33.17,0,0,0-1,4.43c-.78,3-.7,5.89,1.75,8.25a1.13,1.13,0,0,1,.38.58,2,2,0,0,1,0,1.17c-.12.21-.65.17-1,.28s-1,.24-1.06.48a7.06,7.06,0,0,0-.22,2.29c.13,1.56.39,3.1.59,4.66a3.57,3.57,0,0,0,.1,1.05c.8,1.66,1.63,3.29,2.47,4.93,1.24,2.41,3.58,3.3,5.94,3.69a7,7,0,0,0,6.42-2.53,21.58,21.58,0,0,0,1.71-2.63c1.26-1.94,2.39-3.9,1.63-6.37a3.57,3.57,0,0,1,.12-1.4C542.21,542.15,542.62,539.76,543,537.66Z" transform="translate(-420.71 -418.72)"/><path class="cls-1" d="M705.52,539.45a16.91,16.91,0,0,0,.25-4.1c-.56-3,.29-5.75,1.1-8.44a20.34,20.34,0,0,1,4.37-8.46,42.86,42.86,0,0,1,4.88-4.75,18.51,18.51,0,0,1,7.11-3.17,43.89,43.89,0,0,1,5.6-1.17,47,47,0,0,1,6.61,0,16.58,16.58,0,0,1,3.54.71,30.54,30.54,0,0,1,4.2,1.43,38.52,38.52,0,0,1,4.46,2.43,7.23,7.23,0,0,1,1.68,1.59c.76.9,1.42,1.88,2.15,2.8a12.5,12.5,0,0,1,2.87,8.38c0,1.08.4,2.17.43,3.25.06,2-.54,2.78-2.36,3.47-.24.09-.64.22-.78.11-1.41-1.16-3.14-.65-4.69-.84a51.21,51.21,0,0,0-7-.07c-.46,0-.91.24-1.37.28q-1.48.14-3,.18c-1.13,0-2.26,0-3.38,0q-3.53-.09-7-.24a2.2,2.2,0,0,0-2.42,1.62,5.62,5.62,0,0,0-.42,3.53,19.24,19.24,0,0,1,.07,2.75,6.21,6.21,0,0,0,.58,2.36,58.28,58.28,0,0,0,3.46,5.45,13.12,13.12,0,0,0,6.44,4.94,19.18,19.18,0,0,0,2.77.93c1.17.2,2.39.08,3.56.29,3.47.6,6.44-.68,9.34-2.32a4.71,4.71,0,0,1,1.32-.74c.69-.13,1.61-.3,2.07,0s.45,1.32.32,2c-.22,1.1-.78,2.12-1,3.22-.64,2.58-2.62,3.66-4.82,4.53a5.76,5.76,0,0,0-1.47.65c-1.32,1.07-3,.91-4.46,1.27s-3.17,1-4.71.89c-3.08-.25-6.22.2-9.26-.91-1.85-.67-3.93-.66-5.83-1.21a16.61,16.61,0,0,1-3.36-1.81c-.34-.19-.6-.58-1-.67-1.76-.44-2.41-2.16-3.68-3.1-2.26-1.67-3.07-4.34-4.87-6.31a6.9,6.9,0,0,1-1.42-3.41C706,544.29,705.78,541.76,705.52,539.45Zm25.89-23.74a25,25,0,0,0-3.07,1.24,18.1,18.1,0,0,0-2,1.7,6.64,6.64,0,0,0-2.7,4.49c-.31,2.48,1.33,4.18,3.71,3.56a13.52,13.52,0,0,1,4.12-.3c2.13.13,3.69-1,5.13-2.23a2.63,2.63,0,0,0,.36-2.22,11.84,11.84,0,0,0-1.82-4.42C734.31,516.57,732.69,516.3,731.41,515.71Z" transform="translate(-420.71 -418.72)"/><path class="cls-1" d="M577,511.48c.36,0,.72,0,1.08,0,1.78.16,2.42,1,2.22,2.79-.1.9,0,1.94,1,2.18a2.62,2.62,0,0,0,2.14-.6,17.18,17.18,0,0,1,7.42-4.46,8,8,0,0,1,5.41.23,7.57,7.57,0,0,1,4.55,4.46,4.12,4.12,0,0,1-.35,3.43,12.43,12.43,0,0,1-4.24,4.49c-1.15.82-2.36.36-3.47-.09s-2.14-1.13-3.23-1.68a4.19,4.19,0,0,0-5.78,1.64,25.11,25.11,0,0,0-1.76,4.29,8.41,8.41,0,0,0,0,1.94c-.13,2.2-.34,4.4-.44,6.6,0,.82.24,1.66.19,2.47-.24,4.14.84,8.19.89,12.28a39.58,39.58,0,0,0,.6,5.79c.21,1.33.71,2.61,1,3.92s-.29,2.16-1.66,2.14c-.83,0-1.65-.19-2.47-.21-.6,0-1.2.16-1.79.13-.94,0-1.86-.17-2.79-.24s-1.91-.14-2.86-.13a20.8,20.8,0,0,0-2.23.23c-1.09.14-2.17.37-3.26.41a17.32,17.32,0,0,1-3.29-.26c-.26-.05-.58-.64-.61-1a3.71,3.71,0,0,1,1.17-3.39c.19-.16.19-.57.23-.87.24-1.71.52-3.42.67-5.14.07-.89-.18-1.8-.16-2.7,0-1.7.2-3.41.24-5.11s0-3.14,0-4.71c0-.52,0-1,0-1.56,0-1.19-.1-2.39-.16-3.58a4.8,4.8,0,0,1-.07-1.06,36.88,36.88,0,0,0,0-7.86c-.12-3-.35-5.88-2-8.47-.13-.2-.23-.42-.34-.63-1.37-2.54-1.06-3.78,2.23-3.83,2.7,0,5.39-.9,8.08-1.37,1.28-.22,2.57-.37,3.85-.55Z" transform="translate(-420.71 -418.72)"/><path d="M623.69,587.76c-3.72.26-6.8-1.1-9.78-3.32-2.52-1.88-3-4.26-3.15-7.05-.2-3.44,1.85-5.72,3.78-8.1.43-.53.87-1,1.3-1.54a4.89,4.89,0,0,1,6-1.67c1.52.58,3.1,1,4.66,1.5,2.28.68,4.62,1.17,6.83,2,2.77,1,4,2.77,4.4,5.87s-1.1,5.45-2.78,7.55c-1.13,1.42-3.05,2.3-4.74,3.18A10.93,10.93,0,0,1,623.69,587.76Z" transform="translate(-420.71 -418.72)"/><path d="M623.87,536.68a3.77,3.77,0,0,1-3.75-2.77c-1.09-2.81-.93-5.78-1.46-8.64a8.71,8.71,0,0,1,.58-4.58,5.16,5.16,0,0,1,1.37-1.75c.56-.55,1.26-1,1.83-1.48a1.88,1.88,0,0,1,2.35-.51,13.46,13.46,0,0,1,3.6,2.31,6.77,6.77,0,0,1,1.29,3.46c.48,3.33.78,6.68-.39,10A6.21,6.21,0,0,1,623.87,536.68Z" transform="translate(-420.71 -418.72)"/><path d="M543,537.66c-.35,2.1-.76,4.49-1.15,6.89a3.57,3.57,0,0,0-.12,1.4c.76,2.47-.37,4.43-1.63,6.37a21.58,21.58,0,0,1-1.71,2.63,7,7,0,0,1-6.42,2.53c-2.36-.39-4.7-1.28-5.94-3.69-.84-1.64-1.67-3.27-2.47-4.93a3.57,3.57,0,0,1-.1-1.05c-.2-1.56-.46-3.1-.59-4.66a7.06,7.06,0,0,1,.22-2.29c.07-.24.68-.34,1.06-.48s.86-.07,1-.28a2,2,0,0,0,0-1.17,1.13,1.13,0,0,0-.38-.58c-2.45-2.36-2.53-5.2-1.75-8.25a33.17,33.17,0,0,1,1-4.43c1-2.37,1.63-5.11,4.25-6.34,2-.94,4-1.91,6.36-1,1.46.58,3,.86,4.06,2.18a8.22,8.22,0,0,1,.87,1.25c.64,1.28,1.25,2.58,1.85,3.89a4.3,4.3,0,0,1,.31,1.13c.26,1.62.53,3.23.72,4.86C542.61,533.57,542.76,535.45,543,537.66Z" transform="translate(-420.71 -418.72)"/><path d="M731.41,515.71c1.28.59,2.9.86,3.7,1.82a11.84,11.84,0,0,1,1.82,4.42,2.63,2.63,0,0,1-.36,2.22c-1.44,1.24-3,2.36-5.13,2.23a13.52,13.52,0,0,0-4.12.3c-2.38.62-4-1.08-3.71-3.56a6.64,6.64,0,0,1,2.7-4.49,18.1,18.1,0,0,1,2-1.7A25,25,0,0,1,731.41,515.71Z" transform="translate(-420.71 -418.72)"/><path class="cls-1" d="M543.17,461.63a19.25,19.25,0,0,1,1.5-2.26c1.3-1.53,2.43-3.2,4.33-4.2a8.52,8.52,0,0,0,3.44-2.69,3.46,3.46,0,0,1,1.79-1.07c2.23-.72,4.5-1.33,6.74-2a10.73,10.73,0,0,1,4.81-.55,20.49,20.49,0,0,0,4.43.06,9.88,9.88,0,0,1,5.25,1.33,2.33,2.33,0,0,0,1.7.23c3.82-.93,7.71-.59,11.58-.51a5.58,5.58,0,0,1,4.21,2.47,10.38,10.38,0,0,1,.82,1.18c.21.35.38.37.6,0a.33.33,0,0,0,.06-.1c1.37-2.78,3.82-3.53,6.66-3.58.88,0,1.75-.18,2.63-.19s1.66.06,2.49.12c.59,0,1.18.15,1.77.17,3.06.14,6.17,2.78,5.87,5.89a7.25,7.25,0,0,0,.18,1.59,7.42,7.42,0,0,0,1.65-.63c1.69-1.12,3.32-2.31,5-3.48a5.7,5.7,0,0,1,1-.65,39.5,39.5,0,0,1,6.91-2.55c.78-.18,1.56-.34,2.32-.56a15.56,15.56,0,0,1,7,0c2.12.34,4.27.44,6.4.7a12.65,12.65,0,0,1,3.14.6c2.89,1.12,5.74,2.34,8,4.57a4.15,4.15,0,0,0,1,.62,5,5,0,0,1,3,3.38,1.55,1.55,0,0,0,.29.64c.76,1,1.55,1.9,2.33,2.86.6.75.75.78,1.3,0,.78-1.11,1.41-2.32,2.25-3.37a11.9,11.9,0,0,1,3.51-3.34,1.48,1.48,0,0,0,.6-.56,5,5,0,0,1,3.91-2.79,6.08,6.08,0,0,0,1.38-.41c2.13-.92,4.42-.91,6.67-1.15,3.17-.34,6.3-1,9.47-1.24a39.69,39.69,0,0,1,6.44.24,10,10,0,0,1,2.6.86c.66.26,1.27.65,1.93.92a19.59,19.59,0,0,1,7.69,5.48,7.1,7.1,0,0,0,.71.63l1.7,1.61c.09-1.18.25-2.49.29-3.8a3.7,3.7,0,0,1,2-3.23,9,9,0,0,1,5.58-1.33c1.67.08,3.37-.11,5,.06a18.46,18.46,0,0,1,4.53,1c1.45.53,2,2,2.48,3.36a10.44,10.44,0,0,1,.52,4.92c-.34,2.89-.39,5.8-.49,8.71a33.23,33.23,0,0,0,.05,5c.38,3.2-.63,6.33-.34,9.52.13,1.47.06,1.51,1.6,1.51s3.2,0,4.8,0a4.09,4.09,0,0,1,3.16,1.16.55.55,0,0,0,.18.16c2.56,1.29,2.58,3.73,2.65,6.08.06,1.67-.13,3.35-.12,5a8.78,8.78,0,0,1-1.68,4.64,2,2,0,0,1-1,.81,19.77,19.77,0,0,1-3.85.78c-2.11.13-4.23.09-6.35,0a27.26,27.26,0,0,0-5.34.21,14,14,0,0,1-2-.15c-1.43,0-2.86.18-4.29.15-1.7,0-3.42-.15-5.11-.36a2.53,2.53,0,0,1-2-1.83c-.43-1.2-.91-2.38-1.36-3.57a4.05,4.05,0,0,1-.06-2.81c.21-.59.33-1.2.5-1.82-.64.56-1.24,1.05-1.81,1.58-1.62,1.53-3.21,3.08-4.83,4.6a3.9,3.9,0,0,1-1,.63c-1.53.66-3.07,1.3-4.61,1.94a25.26,25.26,0,0,1-7.42,1.7c-1.07.09-2.13.45-3.18.43a37,37,0,0,1-8.62-1.2,29.75,29.75,0,0,1-5.7-2.39,10.25,10.25,0,0,0-2-.72,3.52,3.52,0,0,1-2.53-2,2.85,2.85,0,0,0-1.41-1.53c-.44-.21-.74-.71-1.12-1.05a24.77,24.77,0,0,0-2-1.8,4.21,4.21,0,0,1-1.48-2.23,7.11,7.11,0,0,0-1.16-2c-.38-.5-.85-.29-1,.26a4.44,4.44,0,0,1-2.31,3c-1,.68-1.61,2-2.55,2.83a50,50,0,0,1-4.55,3.64c-1.65,1.18-3.63,1.72-5.45,2.55-3.47,1.6-7.09,1.85-10.73,1.92a31.54,31.54,0,0,1-7.82-.74,19.22,19.22,0,0,1-8.23-3.63c-1.12-.94-2.36-1.74-3.5-2.67-.77-.62-1.47-1.33-2.19-2-.44-.43-.85-.9-1.46-1.56,0,1.32,0,2.35,0,3.37a4.69,4.69,0,0,1-2.27,4.45,9.05,9.05,0,0,1-5.25,1.69c-2.47-.12-5,0-7.43,0-2.31,0-3.7-1.46-4.88-3.19-.5-.75-.56-.82-1.11-.08-1.9,2.54-4.46,3.06-7.45,2.66a20,20,0,0,0-4.17,0,8.39,8.39,0,0,1-4.84-1,1.9,1.9,0,0,0-1.57-.1c-4.55,1.19-9.11,1.81-13.81.56a56.91,56.91,0,0,1-7.22-2.83,18.26,18.26,0,0,1-3.57-2.58c-.64-.48-1.24-1-1.89-1.48s-1-.17-1.18.45c-.65,1.91-1.27,3.83-1.94,5.73a3.93,3.93,0,0,1-.7,1.23,31.59,31.59,0,0,1-3.27,3.46,50,50,0,0,1-4.46,3c-.13.09-.31.1-.44.19a17.58,17.58,0,0,1-6.28,2.13,20.14,20.14,0,0,1-8.43.2,16.41,16.41,0,0,1-9.08-3.85,13.49,13.49,0,0,1-1.82-1.33c-1.47-1.4-2.9-2.85-4.3-4.32a2.72,2.72,0,0,1-.66-1.24,71,71,0,0,1-1.72-7.93c-.46-3.93,1.09-5.66,4.95-6.6a10.06,10.06,0,0,1,2-.44,20.06,20.06,0,0,1,9.44,2.16,3.11,3.11,0,0,1,1.71,2.95,3.08,3.08,0,0,0,2.13,3,3.64,3.64,0,0,0,4.21-.71,3.57,3.57,0,0,0-.17-4.7c-1.5-1.29-3.15-2.4-4.75-3.58-1.15-.86-2.32-1.69-3.48-2.54a13.41,13.41,0,0,1-3.7-3.18,16,16,0,0,1-3.76-7.3c-.82-3.31-.18-6.6.83-9.77a10.63,10.63,0,0,1,4.59-6.28c1-.61,1.82-1.57,2.86-2.14a21.6,21.6,0,0,1,6.94-2.36,51.05,51.05,0,0,1,9.56-.35c2.3.05,4.61.63,5.75,3a10.28,10.28,0,0,1,.79,3.45c.13,1.38,0,2.79,0,4.18Zm118,15.27c.16-3.7-1-6.22-1.73-8.81a9.38,9.38,0,0,0-1-2.43,43.41,43.41,0,0,0-3.28-4.55,18.9,18.9,0,0,0-11.67-6.7c-2.45-.37-4.92-.56-7.36-1a10.86,10.86,0,0,0-4.75.22c-1.48.43-3,.78-4.43,1.35a22.53,22.53,0,0,0-7.33,4.37c-1.35,1.25-3,2.3-3.77,4-1.15,2.35-2.89,4.34-3.55,7a29.61,29.61,0,0,0-1,6.36,22,22,0,0,0,2.13,9.5,17.66,17.66,0,0,0,1.68,3.3,28.34,28.34,0,0,0,7.3,7,16.9,16.9,0,0,0,4,2.07,30.93,30.93,0,0,0,8.18,1.69,22.86,22.86,0,0,0,7.36-.59c3.85-1.06,7.61-2.47,10.48-5.47.22-.23.54-.36.75-.59a43.21,43.21,0,0,0,3.77-4.14,32.63,32.63,0,0,0,2.56-4.73,10.86,10.86,0,0,0,1.12-3C661,479.84,661.05,477.91,661.14,476.9Zm52.43-.42a12.23,12.23,0,0,0-.11-1.92c-.41-2-.57-4.19-1.43-6a34.84,34.84,0,0,0-5.32-7.89c-2.73-3.13-6.32-4.62-10.08-5.92a2.71,2.71,0,0,0-.7-.13,32.71,32.71,0,0,0-9.32.16c-2.56.43-5.17.56-7.71,1.05a11.07,11.07,0,0,0-4.44,1.65,29.45,29.45,0,0,0-5.79,5.15,22.09,22.09,0,0,0-3.79,6.88,22.53,22.53,0,0,0,.71,16.49c1.11,2.54,2.34,5.1,4.58,6.94.92.76,1.89,1.48,2.76,2.3a20.61,20.61,0,0,0,11.63,5.13,29.28,29.28,0,0,0,14.14-1.68,15.09,15.09,0,0,0,5.92-3.72,58.63,58.63,0,0,0,4.31-4.62,21,21,0,0,0,3.15-5.17A22.61,22.61,0,0,0,713.57,476.48ZM588.85,490.1h-.07c.05-.63.11-1.27.15-1.91s0-1.28.06-1.92c0-1,0-2.08.2-3.11a2.1,2.1,0,0,1,2.21-2.08A26.9,26.9,0,0,1,595,481a2.07,2.07,0,0,1,2.24,2.39c0,1.59-.1,3.19-.17,4.79-.12,2.79-.28,5.59-.36,8.38,0,1.52.56,2.17,2.06,2.22,2.23.09,4.47.15,6.71,0s3.11-1.2,3.08-3.49c0-3.31,0-6.63.07-9.94.09-3.56.32-7.1.44-10.66.14-4.3.23-8.61.36-12.92.05-1.72.18-3.43.2-5.15,0-1.4-.37-1.79-1.69-2.23a17,17,0,0,0-6.77-.5c-2.42.18-3.22,1-3.3,3.48,0,.35,0,.71,0,1.07,0,3.4,0,6.79-.06,10.18a2.15,2.15,0,0,1-2,2.08,21.61,21.61,0,0,1-4.18-.18c-1.76-.28-2.27-1-2.25-2.81,0-.52,0-1,0-1.56,0-3.44,0-6.87,0-10.3,0-1.26-.43-1.75-1.63-1.78-2.75-.06-5.51-.06-8.27,0-1,0-1.36.49-1.41,1.44s-.08,2.16-.11,3.23c-.07,2.72-.19,5.43-.21,8.15a4.58,4.58,0,0,1-1.85,3.71,2.12,2.12,0,0,0-.78,2.35,41.25,41.25,0,0,0,1.3,5.09,14.25,14.25,0,0,1,1,6.21c0,.68-.17,1.35-.18,2,0,3.23-.05,6.46-.07,9.69,0,1.65.61,2.41,2.24,2.46,2.27.07,4.55.07,6.83,0a2.54,2.54,0,0,0,2.52-2.75C588.82,493.86,588.85,492,588.85,490.1ZM533,454.56v0c-.32,0-.64,0-1,0a54.62,54.62,0,0,0-6.41.7,10.76,10.76,0,0,0-5.8,3.16c-.44.49-1.14.76-1.56,1.26a13.45,13.45,0,0,0-2.7,6.16,12.21,12.21,0,0,0,3.38,11.39,38.57,38.57,0,0,0,5.59,4.27,39.28,39.28,0,0,1,5.61,4.26,7.13,7.13,0,0,1-1,10.91c-3.15,2-8.11,1.36-10.25-1.65a15.57,15.57,0,0,1-1.54-3.21c-.28-.7-.57-1.34-1.36-1.53a16.56,16.56,0,0,0-7.47-.49c-1.11.24-1.55.62-1.61,1.76a12.45,12.45,0,0,0,.17,2.73,12.93,12.93,0,0,0,3.61,7.52c1.12,1.07,2.43,1.93,3.62,2.92,3,2.46,6.49,3.17,10.18,3.17a23.72,23.72,0,0,0,7-1.25,15.25,15.25,0,0,0,5.81-3.21,22.32,22.32,0,0,0,3.82-5,18.42,18.42,0,0,0,1.55-4.25,13.71,13.71,0,0,0-.54-8.92,45.9,45.9,0,0,0-2.76-5.41,3.22,3.22,0,0,0-.87-1c-1.06-.83-2.15-1.62-3.24-2.42-1.76-1.31-3.51-2.62-5.29-3.89-.61-.44-1.33-.74-1.94-1.18a3.84,3.84,0,0,1,.4-6.18,8.42,8.42,0,0,1,4.29-.88c1.56,0,3.12,0,4.67,0s1.9-.58,1.84-2c0-.48,0-1,0-1.43,0-1.4.06-2.8-.05-4.19s-.52-1.7-1.8-1.84C535.92,454.67,534.44,454.64,533,454.56Zm41.49,3.68h-.07V455a1.65,1.65,0,0,0-1.46-1.76,28.43,28.43,0,0,0-10.68-.37,11.56,11.56,0,0,0-2.87.8,38.88,38.88,0,0,0-4.42,2.1c-1.42.8-2.68,1.87-4.1,2.65a8.78,8.78,0,0,0-2.64,2.54c-.43.57-.78,1.21-1.21,1.78-1.9,2.55-3.58,5.2-4,8.45a3.13,3.13,0,0,1-.18.57c-1.26,3.5-.12,6.88.65,10.23a8.38,8.38,0,0,0,2.23,4.47,6.75,6.75,0,0,1,1,2,3.22,3.22,0,0,0,.51.93c1.29,1.31,2.55,2.65,3.93,3.85a24.79,24.79,0,0,0,7.71,4.27,15.34,15.34,0,0,0,5.89,1.37,28.4,28.4,0,0,0,7-.76c1.61-.45,2-1.06,2.1-2.72.07-2,.13-3.91.22-5.86.07-1.65-.36-2.07-2-1.93-1.51.13-3,.34-4.53.38a11.84,11.84,0,0,1-6.16-1.2,14.19,14.19,0,0,1-6.35-6.24,12,12,0,0,1,2.89-14,13.23,13.23,0,0,1,10-3.27c1.46.13,2.93.19,4.4.29,1.29.1,1.68-.17,1.82-1.44S574.35,459.56,574.45,458.24ZM728,467.84h.21c0-3,0-6.07,0-9.11,0-2.11-.71-2.84-2.79-2.93s-4.32-.09-6.47-.06a2.23,2.23,0,0,0-2.51,2.53c0,1.6.16,3.19.15,4.79,0,4.19-.18,8.39-.17,12.58,0,5.24-.17,10.47-.63,15.69a59.17,59.17,0,0,0-.15,7.05c.05,1.6.46,1.86,2.1,2a5.77,5.77,0,0,0,.72,0c3.16-.06,6.31-.15,9.46-.2,1.12,0,2.24,0,3.35.06,2,0,4.08.07,6.11,0a2,2,0,0,0,2-1.55c.8-2.39.5-4.83.47-7.25a1.46,1.46,0,0,0-1.14-1.39,5.38,5.38,0,0,0-1.64-.24c-2.24,0-4.48.11-6.71.16s-3-.71-2.93-2.88c.18-4.67.4-9.34.56-14C728.06,471.36,728,469.6,728,467.84ZM567.79,467v.1H565a4,4,0,0,0-2.72,1.06c-.75.7-1.45,1.47-2.2,2.16-.41.37-1.08.56-1.31,1-.86,1.64-1.83,3.33-.71,5.27a1.87,1.87,0,0,1,.26.91c-.08,3.1,2.45,4.24,4.35,5.85,1.92.29,3.75,1.14,5.75.88,1.38-.18,2.76-.33,4.13-.57a1,1,0,0,0,.66-.76,8.4,8.4,0,0,0-.4-2.8,27.41,27.41,0,0,1-1.53-6.1c-.36-2.18-.25-4.21,1.17-6,.37-.47.21-.62-.28-.66Zm-34.18,1.36v-.06c-.67,0-1.35,0-2,0a3.92,3.92,0,0,0-.66.15,3.39,3.39,0,0,0,.47.46c1.17.81,2.36,1.58,3.52,2.41,1,.71,2,1.46,3,2.22.28.22.51.48.65-.09.38-1.62.74-3.25,1.14-4.86.14-.57,0-.66-.57-.6C537.25,468.19,535.43,468.27,533.61,468.39Z" transform="translate(-420.71 -418.72)"/><path d="M661.14,476.9c-.09,1-.16,2.94-.47,4.82a10.86,10.86,0,0,1-1.12,3,32.63,32.63,0,0,1-2.56,4.73,43.21,43.21,0,0,1-3.77,4.14c-.21.23-.53.36-.75.59-2.87,3-6.63,4.41-10.48,5.47a22.86,22.86,0,0,1-7.36.59,30.93,30.93,0,0,1-8.18-1.69,16.9,16.9,0,0,1-4-2.07,28.34,28.34,0,0,1-7.3-7,17.66,17.66,0,0,1-1.68-3.3,22,22,0,0,1-2.13-9.5,29.61,29.61,0,0,1,1-6.36c.66-2.66,2.4-4.65,3.55-7,.81-1.66,2.42-2.71,3.77-4a22.53,22.53,0,0,1,7.33-4.37c1.46-.57,2.95-.92,4.43-1.35a10.86,10.86,0,0,1,4.75-.22c2.44.4,4.91.59,7.36,1a18.9,18.9,0,0,1,11.67,6.7,43.41,43.41,0,0,1,3.28,4.55,9.38,9.38,0,0,1,1,2.43C660.18,470.68,661.3,473.2,661.14,476.9Zm-11.95-.54c.45-2.11-.54-3.91-1.5-5.64a10.9,10.9,0,0,0-4.66-4.63,20.17,20.17,0,0,0-5.88-1.48,7.61,7.61,0,0,0-2.38.05,15.09,15.09,0,0,0-7.64,3.13,9.47,9.47,0,0,0-3.73,5.77,21.29,21.29,0,0,0-.29,4.06c.07,2.08.24,4.17,1.92,5.74.22.21.3.56.49.81a7.53,7.53,0,0,0,1.17,1.33,15.35,15.35,0,0,0,7.5,3.23,13.58,13.58,0,0,0,7.19-.81,12.85,12.85,0,0,0,2.25-1.34,11.6,11.6,0,0,0,4.18-4.2C648.71,480.54,649.55,478.57,649.19,476.36Z" transform="translate(-420.71 -418.72)"/><path d="M713.57,476.48a22.61,22.61,0,0,1-1.49,8.68,21,21,0,0,1-3.15,5.17,58.63,58.63,0,0,1-4.31,4.62,15.09,15.09,0,0,1-5.92,3.72,29.28,29.28,0,0,1-14.14,1.68,20.61,20.61,0,0,1-11.63-5.13c-.87-.82-1.84-1.54-2.76-2.3-2.24-1.84-3.47-4.4-4.58-6.94a22.53,22.53,0,0,1-.71-16.49,22.09,22.09,0,0,1,3.79-6.88,29.45,29.45,0,0,1,5.79-5.15,11.07,11.07,0,0,1,4.44-1.65c2.54-.49,5.15-.62,7.71-1.05a32.71,32.71,0,0,1,9.32-.16,2.71,2.71,0,0,1,.7.13c3.76,1.3,7.35,2.79,10.08,5.92a34.84,34.84,0,0,1,5.32,7.89c.86,1.83,1,4,1.43,6A12.23,12.23,0,0,1,713.57,476.48Zm-25.43,12.9c5.5-.41,8.06-1.66,11.16-5.09a9,9,0,0,0,1.46-2c1.48-3.09,1-6.3.39-9.49-.32-1.66-1.54-2.76-2.62-3.93a12.3,12.3,0,0,0-6.17-3.69,13.47,13.47,0,0,0-7,.07,16.71,16.71,0,0,0-6.78,3.84c-2.92,2.58-3.26,6.14-3.08,9.78a3.28,3.28,0,0,0,.27,1.16c1.22,2.74,2.67,5.25,5.26,7A14.89,14.89,0,0,0,688.14,489.38Z" transform="translate(-420.71 -418.72)"/><path d="M588.85,490.1c0,1.88,0,3.76,0,5.64a2.54,2.54,0,0,1-2.52,2.75c-2.28.05-4.56.05-6.83,0-1.63-.05-2.25-.81-2.24-2.46,0-3.23,0-6.46.07-9.69,0-.68.13-1.35.18-2a14.25,14.25,0,0,0-1-6.21,41.25,41.25,0,0,1-1.3-5.09,2.12,2.12,0,0,1,.78-2.35,4.58,4.58,0,0,0,1.85-3.71c0-2.72.14-5.43.21-8.15,0-1.07,0-2.15.11-3.23s.46-1.43,1.41-1.44c2.76,0,5.52,0,8.27,0,1.2,0,1.62.52,1.63,1.78,0,3.43,0,6.86,0,10.3,0,.52,0,1,0,1.56,0,1.77.49,2.53,2.25,2.81a21.61,21.61,0,0,0,4.18.18,2.15,2.15,0,0,0,2-2.08c0-3.39,0-6.78.06-10.18,0-.36,0-.72,0-1.07.08-2.44.88-3.3,3.3-3.48a17,17,0,0,1,6.77.5c1.32.44,1.71.83,1.69,2.23,0,1.72-.15,3.43-.2,5.15-.13,4.31-.22,8.62-.36,12.92-.12,3.56-.35,7.1-.44,10.66-.09,3.31-.11,6.63-.07,9.94,0,2.29-.78,3.4-3.08,3.49s-4.48,0-6.71,0c-1.5-.05-2.09-.7-2.06-2.22.08-2.79.24-5.59.36-8.38.07-1.6.16-3.2.17-4.79A2.07,2.07,0,0,0,595,481a26.9,26.9,0,0,0-3.59.07,2.1,2.1,0,0,0-2.21,2.08c-.15,1-.15,2.08-.2,3.11,0,.64,0,1.28-.06,1.92s-.1,1.28-.15,1.91Z" transform="translate(-420.71 -418.72)"/><path d="M533,454.56c1.48.08,3,.11,4.42.27,1.28.14,1.69.55,1.8,1.84s0,2.79.05,4.19c0,.47,0,.95,0,1.43.06,1.45-.36,2-1.84,2s-3.11.05-4.67,0a8.42,8.42,0,0,0-4.29.88,3.84,3.84,0,0,0-.4,6.18c.61.44,1.33.74,1.94,1.18,1.78,1.27,3.53,2.58,5.29,3.89,1.09.8,2.18,1.59,3.24,2.42a3.22,3.22,0,0,1,.87,1,45.9,45.9,0,0,1,2.76,5.41,13.71,13.71,0,0,1,.54,8.92,18.42,18.42,0,0,1-1.55,4.25,22.32,22.32,0,0,1-3.82,5,15.25,15.25,0,0,1-5.81,3.21,23.72,23.72,0,0,1-7,1.25c-3.69,0-7.22-.71-10.18-3.17-1.19-1-2.5-1.85-3.62-2.92a12.93,12.93,0,0,1-3.61-7.52,12.45,12.45,0,0,1-.17-2.73c.06-1.14.5-1.52,1.61-1.76a16.56,16.56,0,0,1,7.47.49c.79.19,1.08.83,1.36,1.53a15.57,15.57,0,0,0,1.54,3.21c2.14,3,7.1,3.62,10.25,1.65a7.13,7.13,0,0,0,1-10.91,39.28,39.28,0,0,0-5.61-4.26,38.57,38.57,0,0,1-5.59-4.27,12.21,12.21,0,0,1-3.38-11.39,13.45,13.45,0,0,1,2.7-6.16c.42-.5,1.12-.77,1.56-1.26a10.76,10.76,0,0,1,5.8-3.16,54.62,54.62,0,0,1,6.41-.7c.32,0,.64,0,1,0Z" transform="translate(-420.71 -418.72)"/><path d="M574.45,458.24c-.1,1.32-.16,2.63-.31,3.94s-.53,1.54-1.82,1.44c-1.47-.1-2.94-.16-4.4-.29a13.23,13.23,0,0,0-10,3.27,12,12,0,0,0-2.89,14,14.19,14.19,0,0,0,6.35,6.24,11.84,11.84,0,0,0,6.16,1.2c1.52,0,3-.25,4.53-.38,1.68-.14,2.11.28,2,1.93-.09,1.95-.15,3.9-.22,5.86-.06,1.66-.49,2.27-2.1,2.72a28.4,28.4,0,0,1-7,.76,15.34,15.34,0,0,1-5.89-1.37,24.79,24.79,0,0,1-7.71-4.27c-1.38-1.2-2.64-2.54-3.93-3.85a3.22,3.22,0,0,1-.51-.93,6.75,6.75,0,0,0-1-2,8.38,8.38,0,0,1-2.23-4.47c-.77-3.35-1.91-6.73-.65-10.23a3.13,3.13,0,0,0,.18-.57c.41-3.25,2.09-5.9,4-8.45.43-.57.78-1.21,1.21-1.78a8.78,8.78,0,0,1,2.64-2.54c1.42-.78,2.68-1.85,4.1-2.65a38.88,38.88,0,0,1,4.42-2.1,11.56,11.56,0,0,1,2.87-.8,28.43,28.43,0,0,1,10.68.37,1.65,1.65,0,0,1,1.46,1.76v3.23Z" transform="translate(-420.71 -418.72)"/><path d="M728,467.84c0,1.76,0,3.52,0,5.27-.16,4.67-.38,9.34-.56,14-.08,2.17.7,2.93,2.93,2.88s4.47-.13,6.71-.16a5.38,5.38,0,0,1,1.64.24,1.46,1.46,0,0,1,1.14,1.39c0,2.42.33,4.86-.47,7.25a2,2,0,0,1-2,1.55c-2,0-4.07,0-6.11,0-1.11,0-2.23-.08-3.35-.06-3.15,0-6.3.14-9.46.2a5.77,5.77,0,0,1-.72,0c-1.64-.1-2-.36-2.1-2a59.17,59.17,0,0,1,.15-7.05c.46-5.22.65-10.45.63-15.69,0-4.19.14-8.39.17-12.58,0-1.6-.16-3.19-.15-4.79a2.23,2.23,0,0,1,2.51-2.53c2.15,0,4.32,0,6.47.06s2.76.82,2.79,2.93c0,3,0,6.07,0,9.11Z" transform="translate(-420.71 -418.72)"/><path class="cls-1" d="M649.19,476.36c.36,2.21-.48,4.18-1.38,6a11.6,11.6,0,0,1-4.18,4.2,12.85,12.85,0,0,1-2.25,1.34,13.58,13.58,0,0,1-7.19.81,15.35,15.35,0,0,1-7.5-3.23,7.53,7.53,0,0,1-1.17-1.33c-.19-.25-.27-.6-.49-.81-1.68-1.57-1.85-3.66-1.92-5.74a21.29,21.29,0,0,1,.29-4.06,9.47,9.47,0,0,1,3.73-5.77,15.09,15.09,0,0,1,7.64-3.13,7.61,7.61,0,0,1,2.38-.05,20.17,20.17,0,0,1,5.88,1.48,10.9,10.9,0,0,1,4.66,4.63C648.65,472.45,649.64,474.25,649.19,476.36Zm-4.36-.29c.41-1.44-.65-2.8-1.47-4.19a4.13,4.13,0,0,0-1.66-1.63c-3-1.4-6-2.24-9.37-.58a13,13,0,0,0-4,3c-.85.93-.61,2.1-.89,3.16-.79,3,.89,5,2.73,6.83,1.41,1.38,3.44,1.74,5.39,2.07s3.55-.59,5.15-1.48A7.5,7.5,0,0,0,644.83,476.07Z" transform="translate(-420.71 -418.72)"/><path class="cls-1" d="M688.14,489.38a14.89,14.89,0,0,1-7.07-2.34c-2.59-1.79-4-4.3-5.26-7a3.28,3.28,0,0,1-.27-1.16c-.18-3.64.16-7.2,3.08-9.78a16.71,16.71,0,0,1,6.78-3.84,13.47,13.47,0,0,1,7-.07,12.3,12.3,0,0,1,6.17,3.69c1.08,1.17,2.3,2.27,2.62,3.93.64,3.19,1.09,6.4-.39,9.49a9,9,0,0,1-1.46,2C696.2,487.72,693.64,489,688.14,489.38Zm9.27-12.18c-.07-.7-.1-1.42-.24-2.12-.69-3.37-3.24-4.85-6.18-5.76-4-1.22-6.91,1.16-9.84,3.31a2.2,2.2,0,0,0-.53.79c-1.28,2.6-.34,7,1.89,8.87a15.63,15.63,0,0,0,1.73,1.43,8,8,0,0,0,7.32.73C694.89,483.24,697.32,481.21,697.41,477.2Z" transform="translate(-420.71 -418.72)"/><path class="cls-1" d="M498.17,445.13c0-1.41-.15-2.63-.09-3.84a1.82,1.82,0,0,1,.69-1.34c1.94-1,1.43-2.78,1.55-4.31.14-1.75,0-3.52,0-5.11-1.33.09-2.65.27-4,.25a2.23,2.23,0,0,1-2.45-2.49c0-1.63,0-3.27.15-4.9s1-2.57,2.82-2.55c3.27,0,6.55,0,9.82.2a11.72,11.72,0,0,0,6.38-1.66c1.25-.68,2.44-1,3.68-.07s1.28,2.19,1.15,3.57c-.19,1.81-.26,3.62-.39,5.57,3.38-.92,6-.09,8,2.42,1.06-.63,2.06-1.27,3.11-1.83,2.85-1.53,8-1.24,10.38,1.93a14.34,14.34,0,0,1,1.56,3.67c.13.36,0,.81.1,1.19a2.76,2.76,0,0,1-.94,3.09,1.1,1.1,0,0,0,.06.27c1.73,2.78,1,4.84-2.35,6.17a1.91,1.91,0,0,0-1.5,2.2c.1,2.6-3.12,4.61-5.91,4a11,11,0,0,0-6.19.51,15.06,15.06,0,0,1-5.39,1.29c-6.34-.05-12.68.13-19,.21-2.14,0-2.88-.75-2.87-2.89,0-.92,0-1.84,0-2.76A2.47,2.47,0,0,1,498.17,445.13ZM517,444.06c0-1.17.61-2.45-1.05-3.11-.25-.1-.36-.77-.37-1.19,0-1.26,0-2.53,0-3.79A1.9,1.9,0,0,1,517.7,434c1.48,0,2,.34,2.14,1.79a19.07,19.07,0,0,1,.06,2.27c0,1.27,0,2.49-1.12,3.49-.4.35-.23,1.41-.22,2.15,0,.14.47.4.73.4,1.75.05,3.5.09,5.25,0,.45,0,1.19-.38,1.25-.69.12-.69.47-1.55-.55-2.1a1.79,1.79,0,0,1-.75-1.32c-.09-1.95,0-3.92-.07-5.87a3.87,3.87,0,0,0-2.93-3.75,6,6,0,0,0-4.37.52c-1.44.63-1.59.52-1.55-1,.07-2.55.17-5.09.22-7.64,0-.45-.09-1.19-.32-1.27a2.05,2.05,0,0,0-1.4.26c-2.12,1-4.19,1.94-6.67,1.78-3.35-.21-6.71-.15-10.06-.2-.6,0-1.23-.06-1.25.86,0,1.31-.13,2.62-.13,3.94,0,.35.2,1,.39,1a5.81,5.81,0,0,0,2.12,0c.25-.06.36-.71.56-1.07s.37-.9.7-1.08a3.49,3.49,0,0,1,1.92-.53c.28,0,.66.93.66,1.44.06,3.6.07,7.19,0,10.79,0,1.21-.05,2.56-1.73,2.85-.16,0-.33.34-.39.55-.55,2,.06,2.61,2.09,2.48s3.85-.07,5.77-.07Zm21.76-2.32c-.45-1.92-1.48-1.71-2.66-1.13a3.22,3.22,0,0,1-1.25.36c-1.24,0-2.57.41-3.58-.72-.48-.52-.56-1,.25-1.25,2.1-.55,4.22-1,6.32-1.59a1.24,1.24,0,0,0,.79-.55c.49-1.55-.6-4.41-2-5.35a7.16,7.16,0,0,0-8.76.36c-2.56,2-3,5.4-2,8.37.88,2.66,3,3.87,5.69,4.16A7.75,7.75,0,0,0,538.74,441.74Zm-5.19,5.79a9.34,9.34,0,0,0-1.2-.2l-8.26-.07c-7.82,0-15.63-.09-23.45-.11-2.26,0-1.94-.45-1.95,2.46,0,1.74,0,1.71,1.73,1.68,3.78-.07,7.56-.11,11.33-.15,1.68,0,3.36.11,5-.05,1.85-.18,3.68-.6,5.51-.94a19,19,0,0,1,2.09-.45q3.4-.29,6.81-.43A2.49,2.49,0,0,0,533.55,447.53Z" transform="translate(-420.71 -418.72)"/><path d="M517,444.06h-8.92c-1.92,0-3.85-.06-5.77.07s-2.64-.51-2.09-2.48c.06-.21.23-.52.39-.55,1.68-.29,1.71-1.64,1.73-2.85.06-3.6.05-7.19,0-10.79,0-.51-.38-1.41-.66-1.44a3.49,3.49,0,0,0-1.92.53c-.33.18-.49.7-.7,1.08s-.31,1-.56,1.07a5.81,5.81,0,0,1-2.12,0c-.19,0-.39-.66-.39-1,0-1.32.11-2.63.13-3.94,0-.92.65-.87,1.25-.86,3.35.05,6.71,0,10.06.2,2.48.16,4.55-.77,6.67-1.78a2.05,2.05,0,0,1,1.4-.26c.23.08.33.82.32,1.27,0,2.55-.15,5.09-.22,7.64,0,1.52.11,1.63,1.55,1a6,6,0,0,1,4.37-.52,3.87,3.87,0,0,1,2.93,3.75c.05,1.95,0,3.92.07,5.87a1.79,1.79,0,0,0,.75,1.32c1,.55.67,1.41.55,2.1-.06.31-.8.67-1.25.69-1.75.06-3.5,0-5.25,0-.26,0-.73-.26-.73-.4,0-.74-.18-1.8.22-2.15,1.16-1,1.11-2.22,1.12-3.49a19.07,19.07,0,0,0-.06-2.27c-.16-1.45-.66-1.84-2.14-1.79a1.9,1.9,0,0,0-2.11,1.94c-.06,1.26-.07,2.53,0,3.79,0,.42.12,1.09.37,1.19C517.59,441.61,517,442.89,517,444.06ZM507.46,433h-.06v5.87c0,1.11,1.35,2.57,2.36,2.44,1.33-.17,1.16-1.31,1.24-2.24a.49.49,0,0,0,0-.12c0-2.56.1-5.12,0-7.67a26,26,0,0,0-.57-4.11,2,2,0,0,0-2.17-1.3c-.94.19-.83.94-.83,1.62C507.45,429.32,507.46,431.16,507.46,433Z" transform="translate(-420.71 -418.72)"/><path d="M538.74,441.74a7.75,7.75,0,0,1-7.21,2.66c-2.68-.29-4.81-1.5-5.69-4.16-1-3-.51-6.38,2-8.37a7.16,7.16,0,0,1,8.76-.36c1.36.94,2.45,3.8,2,5.35a1.24,1.24,0,0,1-.79.55c-2.1.55-4.22,1-6.32,1.59-.81.22-.73.73-.25,1.25,1,1.13,2.34.77,3.58.72a3.22,3.22,0,0,0,1.25-.36C537.26,440,538.29,439.82,538.74,441.74Zm-8.55-6.35c.08.09.25.46.48.5,1,.19,2.79-.76,2.59-1.34a2.06,2.06,0,0,0-1.29-1.08C531.17,433.25,530.26,434.2,530.19,435.39Z" transform="translate(-420.71 -418.72)"/><path d="M533.55,447.53a2.49,2.49,0,0,1-2.37,1.74q-3.4.15-6.81.43a19,19,0,0,0-2.09.45c-1.83.34-3.66.76-5.51.94-1.66.16-3.34,0-5,.05-3.77,0-7.55.08-11.33.15-1.69,0-1.74.06-1.73-1.68,0-2.91-.31-2.47,1.95-2.46,7.82,0,15.63.07,23.45.11l8.26.07A9.34,9.34,0,0,1,533.55,447.53Z" transform="translate(-420.71 -418.72)"/><path class="cls-1" d="M507.46,433c0-1.84,0-3.68,0-5.51,0-.68-.11-1.43.83-1.62a2,2,0,0,1,2.17,1.3,26,26,0,0,1,.57,4.11c.08,2.55,0,5.11,0,7.67a.49.49,0,0,1,0,.12c-.08.93.09,2.07-1.24,2.24-1,.13-2.35-1.33-2.36-2.44V433Z" transform="translate(-420.71 -418.72)"/><path class="cls-1" d="M530.19,435.39c.07-1.19,1-2.14,1.78-1.92a2.06,2.06,0,0,1,1.29,1.08c.2.58-1.62,1.53-2.59,1.34C530.44,435.85,530.27,435.48,530.19,435.39Z" transform="translate(-420.71 -418.72)"/><path d="M689.29,434.44c0,.07,0,.19.08.19a2,2,0,0,1,1.54,1.61c.22.7.78,1.36.54,2.18a.4.4,0,0,0,.1.31,4.93,4.93,0,0,1,.66,1.29,3,3,0,0,1,.69,1.89c0,.08.11.18.17.28a5,5,0,0,1,1,3.06.6.6,0,0,0,.27.61c.48.3.47.77.46,1.25a1.35,1.35,0,0,1-.57,1.19,4.28,4.28,0,0,1-2.5,1v13.32l1.31.4s.06.08.09.08c1.19,0,2.05.83,3.11,1.18.07,0,.16,0,.24,0,0-.56.52-.48.75-.75.37-.42.85-.7,1.21-1.15s1.17-.77,1.43-1.32,1-.62,1.06-1.21c.58-.08.55-.83,1.13-1,.29-.08.53-.53.69-.86s.54-.26.74-.62a3.53,3.53,0,0,1,1.15-1.12l1-1.16c.25-.21.2-.4,0-.58s-.35-.29-.54-.42a1.53,1.53,0,0,1-.62-1.88,2.35,2.35,0,0,1,1.76-1.48,6.29,6.29,0,0,0,2.11-1,.7.7,0,0,1,.63-.22c.48,0,1,.05,1.26-.45,0,0,.07,0,.1,0,.5-.34,1.16-.19,1.65-.7s1.06-.49,1.59-.75,1-.56,1.59-.81a2.89,2.89,0,0,1,3.26.82,1.73,1.73,0,0,1,.1,2,16,16,0,0,0-1.42,2.42l-.26.49c-.06.1-.2.17-.22.27a5.5,5.5,0,0,1-.16,1.37c-.19.4-.76.64-.56,1.21a16.13,16.13,0,0,0-1,2,2,2,0,0,0-.4,1.16,1.45,1.45,0,0,1-.89,1.43c-1.32.66-2,.47-2.8-.3-.41-.38-.51-.35-1,0a3.19,3.19,0,0,0-.85.83c-.22.29-.62.43-.89.7-1.29,1.26-2.62,2.48-3.8,3.83-1,1.19-2.14,2.33-3.25,3.44-.27.27-.25.49-.08.83.39.79.69,1.63,1.09,2.42a2.09,2.09,0,0,1,.23.87c.06.87.21,1,1,1h12.68c0-.22,0-.41,0-.6a2.21,2.21,0,0,1,2.32-2.29,2.53,2.53,0,0,1,1.71.53,2.81,2.81,0,0,0,1.52.64,3.75,3.75,0,0,1,1.71.54c.52.27,1.18.27,1.61.78a.76.76,0,0,0,.64.14,1.46,1.46,0,0,1,1.19.32c.64.57,1.55.57,2.17,1.14.91,0,1.33.57,1.57,1.35,0,.05.13.06.2.09v1c-.07,0-.2,0-.2.08-.12.94-.91,1.32-1.61,1.54s-1.35.78-2.18.54c-.07,0-.2,0-.22,0-.41.65-1.27.5-1.76,1-.17.19-.45.42-.66.4-1.35-.13-2.3.85-3.46,1.23-.29.09-.52.28-.86.24a1,1,0,0,0-.64.19,1.87,1.87,0,0,1-1.87.14c-.86-.26-1-1.06-1.16-1.77a7.9,7.9,0,0,1,0-1.69H703.4c-.7,0-1.21.34-1.12,1,.17,1.18-.63,2-.84,3a2.2,2.2,0,0,1-.43,1.12c-.5.45.16.68.08,1,.81.2.91,1.1,1.5,1.54a12.79,12.79,0,0,1,1.62,1.59c.39.41.74.86,1.14,1.26s.88.78,1.31,1.19.85.84,1.27,1.27.86.84,1.27,1.27a.85.85,0,0,0,.82.37.48.48,0,0,0,.41-.28,1.71,1.71,0,0,1,2.88-.3c.51.52,1.16,1,1.18,1.79.46.46.57,1.15,1.16,1.56a.93.93,0,0,1,.4,1.28c-.14.21,0,.25.08.34a1.85,1.85,0,0,1,.52,1.47,6,6,0,0,0,.83,2.05,3.41,3.41,0,0,1,.36.57c.26.5.5,1,.75,1.49a2,2,0,0,1-.9,2.8,1.72,1.72,0,0,1-1.85-.09c-1-.64-2.12-.93-3.08-1.56-.15-.1-.38-.06-.57-.09a2,2,0,0,1-.55-.1,14.52,14.52,0,0,0-2.16-1.15c-.86-.27-1.48-1.06-2.51-.94-.68.08-2.41-1.44-2.56-2.06a2.14,2.14,0,0,1,.8-1.95c.15-.1.34-.15.48-.26a.29.29,0,0,0,0-.49c-.33-.37-.81-.63-.93-1.17-.62.05-.54-.76-1.08-.85-.34-.05-.13-.74-.66-.65-.24-.65-.88-1-1.28-1.48a12.16,12.16,0,0,0-1.45-1.33,14.9,14.9,0,0,1-1.31-1.21c-.39-.46-.84-.86-1.26-1.28l-1.46-1.4a18.83,18.83,0,0,1-1.71.79,7.58,7.58,0,0,0-1.39.71,2.23,2.23,0,0,1-1.5.41v13.22a2.17,2.17,0,0,1,2,.66,2.4,2.4,0,0,1,.89,1.8,4.93,4.93,0,0,1-.52,1.83c-.35.8-1,1.47-1,2.5a3.4,3.4,0,0,1-.79,1.8,1.46,1.46,0,0,0-.36,1.06,2.54,2.54,0,0,1-.51,1.59c-.37.62-1,1.15-.92,2a2,2,0,0,1-3.16,1,2.09,2.09,0,0,1-1-1.65c0-.33-.43-.67-.43-1a2.12,2.12,0,0,0-.5-1.48c-.32-.37-.18-1-.66-1.3a.72.72,0,0,1-.29-.58c.23-1.2-.76-1.93-1.09-2.92-.08-.24-.39-.49-.34-.68.24-1-.44-1.6-.79-2.32a.86.86,0,0,1,0-1c.33-.53.51-1.19,1.22-1.39a1.52,1.52,0,0,1,.55-.1c.21,0,.41.19.62.22a7.49,7.49,0,0,0,.95,0v-13.2a5.61,5.61,0,0,0-.58,0,2.51,2.51,0,0,1-1.73-.47,11.15,11.15,0,0,0-1.37-.72,2.06,2.06,0,0,1-.49-.26c-.48-.47-.46-.47-.85-.12-.63.58-1.31,1.12-1.92,1.71-.36.35-.57.87-1,1.14a7.14,7.14,0,0,0-1.15,1c-.42.44-.8.92-1.23,1.35s-.93.84-1.39,1.27a14.77,14.77,0,0,1-1.85,1.86,1.57,1.57,0,0,0-.37.55c-.31.56-.31.57.18.89a2,2,0,0,1,.77,2.21,1.42,1.42,0,0,1-1.38,1.14,1.29,1.29,0,0,0-.73.3c-.68.44-1.49.66-2.16,1.15-.54-.23-.73.36-1.09.53s-.85.09-1.13.52a.92.92,0,0,1-.77.36,2.34,2.34,0,0,0-1.81.6c-.71.5-1.62.55-2.26,1.24-.45.48-2,0-2.35-.6a2.19,2.19,0,0,1-.23-2.34,5.53,5.53,0,0,0,.61-1.78,5.56,5.56,0,0,1,.74-1.62,13.32,13.32,0,0,1,1.12-2.19c.28-.37.35-.9.77-1.24.13-.1.15-.45.1-.66-.25-1.21.72-1.94,1.1-2.91.47-.16.71-.71,1.27-.71s1.33-.09,1.84.47a1.66,1.66,0,0,0,.43.41c.16.08.49.12.54,0,.21-.36.8-.29.87-.82,0-.13.29-.22.44-.34.32-.28.78-.51.93-.86a2.59,2.59,0,0,1,1-1.14,13,13,0,0,0,2.81-2.68c.53-.63,1.34-1.08,1.56-2,.58-.29.87-.92,1.38-1.26.28-.18.35-.29.14-.49a4.47,4.47,0,0,1-.71-1.39c-.21-.43-.58-.76-.64-1.3,0-.31-.33-.58-.45-.89s-.22-.78-.34-1.21h-13.1c0,.4,0,.79,0,1.18a2.2,2.2,0,0,1-2.21,2.16,2.55,2.55,0,0,1-1.83-.53,2.61,2.61,0,0,0-1.39-.64,7.5,7.5,0,0,1-2.92-1.1,3.3,3.3,0,0,0-1.4-.39,2.13,2.13,0,0,1-1-.27c-.52-.3-1-.68-1.51-1a1.35,1.35,0,0,0-.54-.15,1.44,1.44,0,0,1-1.39-1.61,3.37,3.37,0,0,1,0-.84,1.38,1.38,0,0,1,.74-1.17,13.17,13.17,0,0,0,2.1-1c.09-.06.2-.16.29-.14.93.12,1.64-.52,2.45-.76.5-.15.92-.54,1.49-.46a.4.4,0,0,0,.32-.09c.66-.67,1.64-.7,2.4-1.17a2.22,2.22,0,0,1,.65-.17c.18,0,.45,0,.54-.11.58-.68,1.35-.34,2-.34s1.11.7,1.14,1.35,0,1.11,0,1.74h12.13c.37,0,.84.23,1.11-.18a3.7,3.7,0,0,0,.64-1.4,3.36,3.36,0,0,1,.54-1.47c.37-.51.4-1.22.93-1.66,0,0,0-.22-.1-.3-.21-.24-.46-.45-.67-.68a10.51,10.51,0,0,1-1.56-1.76,1.43,1.43,0,0,0-.88-.73c-.26-.08-.47-.43-.64-.7-.33-.51-1-.69-1.23-1.33a.94.94,0,0,0-.59-.55c-.37-.08-.47-.41-.73-.56-.43-.24-.55-.75-1-1a9.54,9.54,0,0,1-.94-.88c-.38-.36-.74-.74-1.15-1.15-.16.15-.32.3-.46.46a2.11,2.11,0,0,1-3.46-.31,8.6,8.6,0,0,1-.76-1.36,4.57,4.57,0,0,1-.24-.74c0-.14,0-.36-.12-.43-.6-.42-.56-1-.64-1.67a3.46,3.46,0,0,0-.7-1.49,10.79,10.79,0,0,1-.87-1.69c-.26-.57-.29-1.28-.92-1.66a2.49,2.49,0,0,1,.88-3.28,1.87,1.87,0,0,1,2,0,2.31,2.31,0,0,0,1.5.43c.15,0,.36,0,.45.07a1.8,1.8,0,0,0,1.41.7c.5,0,.76.74,1.39.69.13,0,.3.24.43.39a.8.8,0,0,0,.71.32.7.7,0,0,1,.51.19,1.3,1.3,0,0,0,1.35.52,1.38,1.38,0,0,1,1,.37,4.85,4.85,0,0,0,1.22.51,1.16,1.16,0,0,1,.79.88,2.36,2.36,0,0,1,.05,1.39c-.11.38-.23.86-.82,1-.3.06-.52.47-.77.72.25.37.42.89.76,1.06a3.25,3.25,0,0,1,1.14,1,11.38,11.38,0,0,0,.94.9,10.84,10.84,0,0,0,1.16,1.19,10.17,10.17,0,0,1,1.2,1.17l1.27,1.27c.4.4.77.81,1.19,1.18s.56.79,1.09.86c0,0,0,.06.08.08.3.23.24.86.71.81s.62-.48,1-.54c.76-.15,1.21-1,2-.87.53-.62,1.27-.46,2-.49V449.34l-1.33,0c-.69,0-1.29-.11-1.55-.87,0-.14-.24-.22-.33-.35a1.39,1.39,0,0,1,0-1.87,16.09,16.09,0,0,0,1.42-2.65,1.36,1.36,0,0,0,.15-.66,1.92,1.92,0,0,1,.53-1.46c.37-.38.4-1,.86-1.33a.16.16,0,0,0,.05-.09,2.26,2.26,0,0,1,.71-2.11,15.25,15.25,0,0,1,.74-2.09,1.78,1.78,0,0,1,1.13-1.17,2.06,2.06,0,0,0,.31-.23Zm12,43.27a1.11,1.11,0,0,1,.28-.07h14.88c1,0,1.36.51,1,1.42a3,3,0,0,0-.07,1.61c.13.66.57.77,1.05.29.33-.34.59-.57,1.06-.22.08.07.34-.09.52-.14a1,1,0,0,0,.53-.47c.12-.18.55-.13.85-.2a1,1,0,0,0,.3-.13c.8-.47.8-.47,1.22-.48.27,0,.55.06.76-.22a1,1,0,0,1,1.11-.51c.08,0,.23-.09.28-.17.34-.59.89-.56,1.46-.55.22,0,.54,0,.64-.14a1.47,1.47,0,0,1,1.46-.58.28.28,0,0,0,.2-.09.9.9,0,0,0,.25-.37c0-.06-.17-.18-.28-.25-.58-.34-1.38-.26-1.77-1,0,0-.16,0-.23,0a.74.74,0,0,1-.81-.35,1,1,0,0,0-.93-.38c-.47,0-1,.12-1.28-.38a.28.28,0,0,0-.2-.09c-.53.15-.83-.17-1.11-.52a1.12,1.12,0,0,0-1-.45c-.46,0-1,.12-1.28-.39a.24.24,0,0,0-.2-.08c-.52.15-.79-.21-1.11-.51a1,1,0,0,0-.51-.2c-.7-.06-1.14.65-.89,1.43a1.24,1.24,0,0,1-.27,1.49c-.29.26-.59.18-.88.18h-14.4a.55.55,0,0,1-.65-.64c0-.39-.06-.69-.49-.81a.45.45,0,0,1-.22-.31,3,3,0,0,1,0-.6c0-.58,0-.57-.55-1.2a.57.57,0,0,1-.16-.4.86.86,0,0,0-.35-.83.8.8,0,0,1-.4-.8.65.65,0,0,0-.21-.5c-.43-.34-.22-.56.07-.84l10.44-10.44c.59-.58.78-.53,1.57,0,.28.19.57.28.67.68a.6.6,0,0,0,.68.35c.5,0,.7-.19.71-.71s-.08-1.27.57-1.69a.46.46,0,0,0,.14-.41c-.1-.49.34-.66.53-1a5.11,5.11,0,0,0,.36-1c0-.07.11-.17.17-.17.5,0,.39-.37.39-.66,0-.67-.13-1.37.61-1.8.09-.06.12-.28.11-.42,0-.36.1-.69.42-.74s.33-.29.3-.5a.73.73,0,0,1,.49-.88.37.37,0,0,0,0-.71,4,4,0,0,0-1.29-.07.86.86,0,0,0-.56.34c-.29.36-.68.29-1.05.39s-.61.45-.91.69h-.12c-.48-.15-.67.41-1,.45a1.65,1.65,0,0,0-1,.43,1.58,1.58,0,0,1-1.58.55c-.37-.06-.72.07-.79.37s-.18.39-.46.36a1,1,0,0,0-1,.37c-.09.11-.36.11-.55.1a.57.57,0,0,0-.6.44.54.54,0,0,0,.3.7c.56.19.85.67,1.24,1s.48.47,0,.91q-4.27,4.29-8.57,8.57c-.21.2-.5.32-.7.53-.46.48-.87,1-1.32,1.49a1.07,1.07,0,0,1-1.37.06,1.06,1.06,0,0,0-.73-.3.66.66,0,0,1-.5-.21c-.36-.61-.93-.51-1.48-.5-.28,0-.65.06-.72-.26-.12-.56-.51-.46-.88-.46h-1.16c0-5.07,0-10,0-15,0-1.55-.16-1.64,1.52-1.56a2.44,2.44,0,0,0,1.31-.33c.37-.2.41-.45.07-.73a1.38,1.38,0,0,1-.5-1.36,1,1,0,0,0-.1-.67,1.26,1.26,0,0,1-.4-.93.87.87,0,0,0-.36-.54c-.39-.33-.4-.36-.34-.87a1.26,1.26,0,0,0-.46-1.3c-.08-.06-.25-.14-.24-.17.11-.55-.21-.88-.55-1.23A.78.78,0,0,1,690,439c0-.64,0-1.26-.59-1.68-.09-.07-.11-.28-.13-.42s.06-.44,0-.59-.33-.41-.49-.4-.44.3-.43.45a1.55,1.55,0,0,1-.61,1.45c-.11.09-.08.35-.14.53s-.09.41-.22.5a1.38,1.38,0,0,0-.5,1.36c0,.32.15.74-.41.77a5.1,5.1,0,0,1-.1,1c0,.14-.27.28-.44.34-.42.14-.5.43-.49.81s.14.76,0,.94c-.41.48-.49,1.13-.84,1.57a1.92,1.92,0,0,0-.33,1.32.58.58,0,0,0,.63.64c.6,0,1.2,0,1.8,0s.91.45.65.82a1.52,1.52,0,0,0-.2,1q0,6.42,0,12.84a1.63,1.63,0,0,0,.16,1c.22.33-.24.86-.67.87h-.48c-.69,0-1.45-.18-1.92.6-.05.09-.27.09-.42.12s-.41,0-.44.06c-.35.83-1.41.43-1.84,1.1-.51,0-1,0-1.54.05s-.23-.46-.39-.45c-.6.06-.49-.65-1-.82s-.63-.66-1-1a4,4,0,0,1-1.09-1.11,2.92,2.92,0,0,0-.93-.92c-.35-.27-.54-.75-.87-1.06-.73-.67-1.65-1.14-2.09-2.1-.61,0-.63-.79-1.15-.92-.06-.59-.94-.52-.92-1.16-.5-.07-.64-.56-1-.82s-.53-.27-.45-.58a1.46,1.46,0,0,1,.42-.63c.45-.43.92-.84,1.4-1.23a.68.68,0,0,0,.3-.82.62.62,0,0,0-.69-.36.65.65,0,0,1-.51-.17.87.87,0,0,0-.85-.3c-.55,0-1.11.06-1.47-.52a.64.64,0,0,0-.51-.19,1,1,0,0,1-.71-.32,2.78,2.78,0,0,0-.94-.63,4.93,4.93,0,0,1-.72-.29c-.56-.3-1.26-.32-1.66-.93,0,0-.07,0-.11,0a1.67,1.67,0,0,1-1.68-.61c-.19-.25-1-.15-1.16.06a.83.83,0,0,0,.13,1.29c.14.12.35.32.32.45a1.13,1.13,0,0,0,.53,1.11c.38.32.08.77.24,1.1s.8.31.7.89a.55.55,0,0,0,.23.63,1.15,1.15,0,0,1,.48,1.23,1.08,1.08,0,0,0,.45,1.14c.38.24.17.66.3,1a4.55,4.55,0,0,0,.69.91s0,.08,0,.12c-.1.38.19.45.42.66.4.37.6,0,.8-.13a1.8,1.8,0,0,0,.86-.77c.16-.37.35-.39.68-.42a1.07,1.07,0,0,1,.91.44l5.51,5.51c1.67,1.67,3.33,3.34,5,5,.25.25.27.42,0,.68-.48.49-1.18.86-1,1.73,0,0,0,.07-.08.08-.78.41-.59,1.13-.62,1.79,0,.13-.09.36-.16.37-.79.16-.53.77-.55,1.23,0,.84-.12.94-1,.95H660.38c-.7,0-.84-.14-.85-.8s0-1.36,0-2c0-.17,0-.44-.15-.5a.58.58,0,0,0-.53.09,1.11,1.11,0,0,1-1.06.37c-.27,0-.55-.07-.76.21a1,1,0,0,1-1.11.52c-.07,0-.22.08-.27.17-.35.58-.9.56-1.47.54-.26,0-.54-.07-.75.21a1,1,0,0,1-1.11.52c-.08,0-.23.08-.28.17-.34.58-.9.56-1.46.54-.19,0-.47,0-.56.06a2.11,2.11,0,0,1-1.5.77.41.41,0,0,0-.24.35c0,.17.21.45.3.45a1.81,1.81,0,0,1,1.73.77c.53-.21.73.36,1.12.51s.7.31,1.08.14c.13-.06.18-.19.35,0,.4.41.73,1,1.46.82.1,0,.23.2.36.29a1.8,1.8,0,0,0,1.26.42.91.91,0,0,1,1,.33.5.5,0,0,0,.41.14c.38-.08.57.16.81.37a3.93,3.93,0,0,0,.66.43c.08.05.22.1.25.07.23-.25.59-.41.53-.86a5.57,5.57,0,0,1,0-1.08c0-.62,0-.59.7-1.38.25-.3.49-.17.73-.17,4.56,0,9.12,0,13.68,0a1.35,1.35,0,0,1,1,.41,1.15,1.15,0,0,1,.41,1,1.28,1.28,0,0,0,.5,1.36.66.66,0,0,1,.2.5.8.8,0,0,0,.41.8c.41.28.34.68.32,1.06,0,.54.81.33.73.89a.24.24,0,0,0,0,.12,1.73,1.73,0,0,1-.55,1.45,6.34,6.34,0,0,1-1.12,1.08c-.46.26-.63.71-1,1-1.44,1.39-2.84,2.82-4.26,4.23-.24.23-.55.38-.78.62-1,1-1.89,2-2.86,3-.34.35-.9.18-1.3-.26a3,3,0,0,0-1.16-.94c-.4-.15-.91,0-.88.26.06.66-.32,1-.69,1.41-.11.12-.07.37-.07.57,0,.55,0,1.11-.53,1.46a.47.47,0,0,0-.18.4.94.94,0,0,1-.43.91.68.68,0,0,0-.3.71.57.57,0,0,1-.29.6,1.42,1.42,0,0,0-.47,1c-.06.34-.49.59-.67.92a.77.77,0,0,0,0,.68c.41.43-.21.54-.22.83,0,.07-.28.1-.37.2-.34.35-.23.84.25,1.31.11.1.1.1.54-.39.09-.1.31-.09.37-.2.18-.3.41.06.51,0,.41-.38.76-.82,1.41-.68.07,0,.19-.14.25-.24a1.06,1.06,0,0,1,1.14-.45,1.24,1.24,0,0,0,1.25-.48.65.65,0,0,1,.49-.23c.44.09.64-.22.9-.45s.34-.29.48-.26c.54.1.8-.28,1.08-.6s.89.11,1.16-.41a.91.91,0,0,1,1-.46c.3,0,.3-.21.25-.39a1.15,1.15,0,0,0-.27-.48c-.39-.41-.8-.79-1.18-1.2s-.29-.56,0-.9c.11-.12.23-.22.34-.34L680.26,487c.14-.14.26-.35.43-.41s.54-.11.62,0c.32.41.91.53,1.13,1.07a.56.56,0,0,0,.47.25.91.91,0,0,1,.9.44c.22.32.52.31.84.3h1c.24,0,.54-.07.69.05a4.88,4.88,0,0,1,1,1c.21.28-.07.56-.19.84a1.54,1.54,0,0,0,0,.48c0,4.2,0,8.4,0,12.6a2.22,2.22,0,0,0,.07.57c.13.5,0,.74-.4.76-.6,0-1.2,0-1.8,0-.39,0-.8-.09-.87.47-.58,0-.45.34-.15.57a1.36,1.36,0,0,1,.51,1.36c0,.44,0,.89.57,1,.09,0,.21.48.26.72s.1.61.2.63c.45.09.41.37.41.68,0,.55-.11,1.12.5,1.48.13.08.15.33.21.51s.09.5.23.61a1.42,1.42,0,0,1,.5,1.37c0,.25-.12.56.17.76a1.28,1.28,0,0,1,.55,1.34c-.05.41.3.32.49.27a.52.52,0,0,0,.47-.57c0-.28,0-.55.24-.74a1,1,0,0,0,.48-1.13c0-.1,0-.32,0-.33.68-.17.42-.72.42-1.12a1,1,0,0,1,.41-.92c.59-.43.43-1.28,1-1.77.16-.14.06-.6,0-.92s0-.63.31-.83.38-.62.45-1,.47-.6.67-.92c.08-.11,0-.32,0-.47a1.67,1.67,0,0,0-1.17-1H690.3V488.68c.66,0,1.26,0,1.86,0a1,1,0,0,0,.52-.16c.31-.23.49-.57,1-.58.33,0,.65-.35,1-.44a2.28,2.28,0,0,0,1.08-.58c.61-.55.7-.56,1.24,0l11,11-2.17,2.16c.49.48,1,1.17,1.66,1,1-.21,1.23.84,2,.78h.24c.26,0,.32.1.46.34.35.62,1.38.26,1.72,1,0,.07.29.05.44.07h.12c.56,0,1.12-.06,1.47.53a.53.53,0,0,0,.39.18,1.1,1.1,0,0,1,.85.31,1.39,1.39,0,0,0,.9.39c.42,0,.24.63.72.59.14,0,.31.11.42-.07.26-.41.22-1.17-.17-1.36s-.47-.3-.42-.67c0-.18,0-.48-.07-.55-.48-.34-.5-1-.86-1.32a1.71,1.71,0,0,1-.51-1.49,2.66,2.66,0,0,0-.08-.8c0-.13-.39-.23-.37-.29.13-.59-.28-.87-.61-1.21-.14-.13-.37-.31-.35-.44.09-.56-.24-.87-.58-1.22a.81.81,0,0,1-.16-.52c0-.64-.5-.91-.9-1.15s-.68.24-1,.5l-.34.34a1.68,1.68,0,0,1-2.11,0c-.23-.24-.35-.69-.61-.79a.88.88,0,0,1-.65-.7c-.68,0-.63-.92-1.25-1-.23-.61-.88-.79-1.27-1.25a22,22,0,0,1-1.57-1.64c-.42-.63-1.3-.82-1.45-1.65-.72-.1-.87-.84-1.36-1.21s-.82-.85-1.3-1.22c-.16-.12-.22-.37-.37-.5-.67-.55-.69-.63-.12-1.23.2-.2.4-.39.59-.59s.46-.38.44-.53c-.09-.62.38-.89.64-1.31s.59-.68.18-1.23c-.28-.39-.09-.66.45-1.29a.84.84,0,0,0,.19-.39A7.18,7.18,0,0,0,701.29,477.71Z" transform="translate(-420.71 -418.72)"/><path class="cls-1" d="M701.29,477.71a7.18,7.18,0,0,1,0,.8.84.84,0,0,1-.19.39c-.54.63-.73.9-.45,1.29.41.55,0,.9-.18,1.23s-.73.69-.64,1.31c0,.15-.28.36-.44.53s-.39.39-.59.59c-.57.6-.55.68.12,1.23.15.13.21.38.37.5.48.37.84.86,1.3,1.22s.64,1.11,1.36,1.21c.15.83,1,1,1.45,1.65A22,22,0,0,0,705,491.3c.39.46,1,.64,1.27,1.25.62.08.57,1,1.25,1a.88.88,0,0,0,.65.7c.26.1.38.55.61.79a1.68,1.68,0,0,0,2.11,0l.34-.34c.28-.26.55-.76,1-.5s.92.51.9,1.15a.81.81,0,0,0,.16.52c.34.35.67.66.58,1.22,0,.13.21.31.35.44.33.34.74.62.61,1.21,0,.06.33.16.37.29a2.66,2.66,0,0,1,.08.8,1.71,1.71,0,0,0,.51,1.49c.36.33.38,1,.86,1.32.1.07.09.37.07.55,0,.37.09.51.42.67s.43.95.17,1.36c-.11.18-.28.06-.42.07-.48,0-.3-.57-.72-.59a1.39,1.39,0,0,1-.9-.39,1.1,1.1,0,0,0-.85-.31.53.53,0,0,1-.39-.18c-.35-.59-.91-.55-1.47-.53h-.12c-.15,0-.41,0-.44-.07-.34-.77-1.37-.41-1.72-1-.14-.24-.2-.36-.46-.34h-.24c-.77.06-1-1-2-.78-.64.15-1.17-.54-1.66-1l2.17-2.16-11-11c-.54-.55-.63-.54-1.24,0a2.28,2.28,0,0,1-1.08.58c-.35.09-.67.43-1,.44-.49,0-.67.35-1,.58a1,1,0,0,1-.52.16c-.6,0-1.2,0-1.86,0V505H692a1.67,1.67,0,0,1,1.17,1c0,.15.07.36,0,.47-.2.32-.61.58-.67.92s-.08.78-.45,1-.31.51-.31.83.11.78,0,.92c-.56.49-.4,1.34-1,1.77a1,1,0,0,0-.41.92c0,.4.26.95-.42,1.12,0,0-.06.23,0,.33a1,1,0,0,1-.48,1.13c-.28.19-.26.46-.24.74a.52.52,0,0,1-.47.57c-.19,0-.54.14-.49-.27a1.28,1.28,0,0,0-.55-1.34c-.29-.2-.18-.51-.17-.76a1.42,1.42,0,0,0-.5-1.37c-.14-.11-.15-.41-.23-.61s-.08-.43-.21-.51c-.61-.36-.51-.93-.5-1.48,0-.31,0-.59-.41-.68-.1,0-.15-.41-.2-.63s-.17-.71-.26-.72c-.62-.08-.61-.53-.57-1A1.36,1.36,0,0,0,684,506c-.3-.23-.43-.52.15-.57.07-.56.48-.48.87-.47.6,0,1.2,0,1.8,0,.42,0,.53-.26.4-.76a2.22,2.22,0,0,1-.07-.57c0-4.2,0-8.4,0-12.6a1.54,1.54,0,0,1,0-.48c.12-.28.4-.56.19-.84a4.88,4.88,0,0,0-1-1c-.15-.12-.45-.05-.69-.05h-1c-.32,0-.62,0-.84-.3a.91.91,0,0,0-.9-.44.56.56,0,0,1-.47-.25c-.22-.54-.81-.66-1.13-1.07-.08-.11-.43-.07-.62,0s-.29.27-.43.41l-10.1,10.09c-.11.12-.23.22-.34.34-.29.34-.3.59,0,.9s.79.79,1.18,1.2a1.15,1.15,0,0,1,.27.48c.05.18.05.43-.25.39a.91.91,0,0,0-1,.46c-.27.52-.84.06-1.16.41s-.54.7-1.08.6c-.14,0-.34.14-.48.26s-.46.54-.9.45a.65.65,0,0,0-.49.23,1.24,1.24,0,0,1-1.25.48,1.06,1.06,0,0,0-1.14.45c-.06.1-.18.25-.25.24-.65-.14-1,.3-1.41.68-.1.09-.33-.27-.51,0-.06.11-.28.1-.37.2-.44.49-.43.49-.54.39-.48-.47-.59-1-.25-1.31.09-.1.37-.13.37-.2,0-.29.63-.4.22-.83a.77.77,0,0,1,0-.68c.18-.33.61-.58.67-.92a1.42,1.42,0,0,1,.47-1,.57.57,0,0,0,.29-.6.68.68,0,0,1,.3-.71.94.94,0,0,0,.43-.91.47.47,0,0,1,.18-.4c.58-.35.54-.91.53-1.46,0-.2,0-.45.07-.57.37-.41.75-.75.69-1.41,0-.3.48-.41.88-.26a3,3,0,0,1,1.16.94c.4.44,1,.61,1.3.26,1-1,1.9-2,2.86-3,.23-.24.54-.39.78-.62,1.42-1.41,2.82-2.84,4.26-4.23.34-.33.51-.78,1-1a6.34,6.34,0,0,0,1.12-1.08,1.73,1.73,0,0,0,.55-1.45.24.24,0,0,1,0-.12c.08-.56-.76-.35-.73-.89,0-.38.09-.78-.32-1.06a.8.8,0,0,1-.41-.8.66.66,0,0,0-.2-.5,1.28,1.28,0,0,1-.5-1.36,1.15,1.15,0,0,0-.41-1,1.35,1.35,0,0,0-1-.41c-4.56,0-9.12,0-13.68,0-.24,0-.48-.13-.73.17-.66.79-.7.76-.7,1.38a5.57,5.57,0,0,0,0,1.08c.06.45-.3.61-.53.86,0,0-.17,0-.25-.07a3.93,3.93,0,0,1-.66-.43c-.24-.21-.43-.45-.81-.37a.5.5,0,0,1-.41-.14.91.91,0,0,0-1-.33,1.8,1.8,0,0,1-1.26-.42c-.13-.09-.26-.3-.36-.29-.73.15-1.06-.41-1.46-.82-.17-.17-.22,0-.35,0-.38.17-.71,0-1.08-.14s-.59-.72-1.12-.51a1.81,1.81,0,0,0-1.73-.77c-.09,0-.27-.28-.3-.45a.41.41,0,0,1,.24-.35,2.11,2.11,0,0,0,1.5-.77c.09-.1.37-.06.56-.06.56,0,1.12,0,1.46-.54.05-.09.2-.19.28-.17a1,1,0,0,0,1.11-.52c.21-.28.49-.22.75-.21.57,0,1.12,0,1.47-.54.05-.09.2-.19.27-.17a1,1,0,0,0,1.11-.52c.21-.28.49-.22.76-.21a1.11,1.11,0,0,0,1.06-.37.58.58,0,0,1,.53-.09c.11.06.14.33.15.5,0,.68,0,1.36,0,2s.15.79.85.8h14.76c.83,0,.91-.11,1-.95,0-.46-.24-1.07.55-1.23.07,0,.15-.24.16-.37,0-.66-.16-1.38.62-1.79,0,0,.08-.06.08-.08-.15-.87.55-1.24,1-1.73.25-.26.23-.43,0-.68-1.68-1.66-3.34-3.33-5-5L668,457.9a1.07,1.07,0,0,0-.91-.44c-.33,0-.52.05-.68.42a1.8,1.8,0,0,1-.86.77c-.2.1-.4.5-.8.13-.23-.21-.52-.28-.42-.66,0,0,0-.1,0-.12a4.55,4.55,0,0,1-.69-.91c-.13-.3.08-.72-.3-1a1.08,1.08,0,0,1-.45-1.14,1.15,1.15,0,0,0-.48-1.23.55.55,0,0,1-.23-.63c.1-.58-.55-.55-.7-.89s.14-.78-.24-1.1a1.13,1.13,0,0,1-.53-1.11c0-.13-.18-.33-.32-.45a.83.83,0,0,1-.13-1.29c.13-.21,1-.31,1.16-.06a1.67,1.67,0,0,0,1.68.61s.1,0,.11,0c.4.61,1.1.63,1.66.93a4.93,4.93,0,0,0,.72.29,2.78,2.78,0,0,1,.94.63,1,1,0,0,0,.71.32.64.64,0,0,1,.51.19c.36.58.92.54,1.47.52a.87.87,0,0,1,.85.3.65.65,0,0,0,.51.17.62.62,0,0,1,.69.36.68.68,0,0,1-.3.82c-.48.39-1,.8-1.4,1.23a1.46,1.46,0,0,0-.42.63c-.08.31.23.41.45.58s.47.75,1,.82c0,.64.86.57.92,1.16.52.13.54.9,1.15.92.44,1,1.36,1.43,2.09,2.1.33.31.52.79.87,1.06a2.92,2.92,0,0,1,.93.92,4,4,0,0,0,1.09,1.11c.38.3.64.83,1,1s.37.88,1,.82c.16,0,0,.48.39.45s1,0,1.54-.05c.43-.67,1.49-.27,1.84-1.1,0-.07.29,0,.44-.06s.37,0,.42-.12c.47-.78,1.23-.59,1.92-.6h.48c.43,0,.89-.54.67-.87a1.63,1.63,0,0,1-.16-1q0-6.42,0-12.84a1.52,1.52,0,0,1,.2-1c.26-.37-.12-.8-.65-.82s-1.2,0-1.8,0a.58.58,0,0,1-.63-.64,1.92,1.92,0,0,1,.33-1.32c.35-.44.43-1.09.84-1.57.16-.18,0-.62,0-.94s.07-.67.49-.81c.17-.06.4-.2.44-.34a5.1,5.1,0,0,0,.1-1c.56,0,.43-.45.41-.77a1.38,1.38,0,0,1,.5-1.36c.13-.09.17-.33.22-.5s0-.44.14-.53a1.55,1.55,0,0,0,.61-1.45c0-.15.27-.44.43-.45s.39.22.49.4,0,.39,0,.59,0,.35.13.42c.64.42.61,1,.59,1.68a.78.78,0,0,0,.18.52c.34.35.66.68.55,1.23,0,0,.16.11.24.17a1.26,1.26,0,0,1,.46,1.3c-.06.51-.05.54.34.87a.87.87,0,0,1,.36.54,1.26,1.26,0,0,0,.4.93,1,1,0,0,1,.1.67,1.38,1.38,0,0,0,.5,1.36c.34.28.3.53-.07.73a2.44,2.44,0,0,1-1.31.33c-1.68-.08-1.52,0-1.52,1.56,0,5,0,9.92,0,15h1.16c.37,0,.76-.1.88.46.07.32.44.26.72.26.55,0,1.12-.11,1.48.5a.66.66,0,0,0,.5.21,1.06,1.06,0,0,1,.73.3,1.07,1.07,0,0,0,1.37-.06c.45-.48.86-1,1.32-1.49.2-.21.49-.33.7-.53q4.29-4.28,8.57-8.57c.44-.44.45-.46,0-.91s-.68-.85-1.24-1a.54.54,0,0,1-.3-.7.57.57,0,0,1,.6-.44c.19,0,.46,0,.55-.1a1,1,0,0,1,1-.37c.28,0,.38,0,.46-.36s.42-.43.79-.37a1.58,1.58,0,0,0,1.58-.55,1.65,1.65,0,0,1,1-.43c.34,0,.53-.6,1-.45h.12c.3-.24.57-.6.91-.69s.76,0,1.05-.39a.86.86,0,0,1,.56-.34,4,4,0,0,1,1.29.07.37.37,0,0,1,0,.71.73.73,0,0,0-.49.88c0,.21.1.44-.3.5s-.46.38-.42.74c0,.14,0,.36-.11.42-.74.43-.61,1.13-.61,1.8,0,.29.11.65-.39.66-.06,0-.14.1-.17.17a5.11,5.11,0,0,1-.36,1c-.19.33-.63.5-.53,1a.46.46,0,0,1-.14.41c-.65.42-.56,1.06-.57,1.69s-.21.67-.71.71a.6.6,0,0,1-.68-.35c-.1-.4-.39-.49-.67-.68-.79-.56-1-.61-1.57,0L699,468.31c-.29.28-.5.5-.07.84a.65.65,0,0,1,.21.5.8.8,0,0,0,.4.8.86.86,0,0,1,.35.83.57.57,0,0,0,.16.4c.54.63.54.62.55,1.2a3,3,0,0,0,0,.6.45.45,0,0,0,.22.31c.43.12.5.42.49.81a.55.55,0,0,0,.65.64h14.4c.29,0,.59.08.88-.18a1.24,1.24,0,0,0,.27-1.49c-.25-.78.19-1.49.89-1.43a1,1,0,0,1,.51.2c.32.3.59.66,1.11.51a.24.24,0,0,1,.2.08c.32.51.82.42,1.28.39a1.12,1.12,0,0,1,1,.45c.28.35.58.67,1.11.52a.28.28,0,0,1,.2.09c.31.5.81.4,1.28.38a1,1,0,0,1,.93.38.74.74,0,0,0,.81.35c.07,0,.21,0,.23,0,.39.7,1.19.62,1.77,1,.11.07.29.19.28.25a.9.9,0,0,1-.25.37.28.28,0,0,1-.2.09,1.47,1.47,0,0,0-1.46.58c-.1.13-.42.14-.64.14-.57,0-1.12,0-1.46.55-.05.08-.2.19-.28.17a1,1,0,0,0-1.11.51c-.21.28-.49.21-.76.22-.42,0-.42,0-1.22.48a1,1,0,0,1-.3.13c-.3.07-.73,0-.85.2a1,1,0,0,1-.53.47c-.18,0-.44.21-.52.14-.47-.35-.73-.12-1.06.22-.48.48-.92.37-1.05-.29a3,3,0,0,1,.07-1.61c.32-.91-.06-1.42-1-1.42H701.57A1.11,1.11,0,0,0,701.29,477.71Z" transform="translate(-420.71 -418.72)"/></svg>